<svg width="220" height="220" viewBox="0 0 220 220" fill="none" xmlns="http://www.w3.org/2000/svg">
<path d="M199.375 68.75H206.25V75.625H199.375V68.75Z" fill="#FE6D00"/>
<path d="M206.25 75.625H213.125V82.5H206.25V75.625Z" fill="#FE6D00"/>
<path d="M199.375 82.5H206.25V89.375H199.375V82.5Z" fill="#FE6D00"/>
<path d="M192.5 75.625H199.375V82.5H192.5V75.625Z" fill="#FE6D00"/>
<path d="M199.375 137.5H206.25V144.375H199.375V137.5Z" fill="#0E3594"/>
<path d="M206.25 130.625H213.125V137.5H206.25V130.625Z" fill="#0E3594"/>
<path d="M199.375 123.75H206.25V130.625H199.375V123.75Z" fill="#0E3594"/>
<path d="M192.5 130.625H199.375V137.5H192.5V130.625Z" fill="#0E3594"/>
<path d="M13.75 68.75H20.625V75.625H13.75V68.75Z" fill="#0E3594"/>
<path d="M6.875 75.625H13.75V82.5H6.875V75.625Z" fill="#0E3594"/>
<path d="M13.75 82.5H20.625V89.375H13.75V82.5Z" fill="#0E3594"/>
<path d="M20.625 75.625H27.5V82.5H20.625V75.625Z" fill="#0E3594"/>
<path d="M13.75 137.5H20.625V144.375H13.75V137.5Z" fill="#FE6D00"/>
<path d="M6.875 130.625H13.75V137.5H6.875V130.625Z" fill="#FE6D00"/>
<path d="M13.75 123.75H20.625V130.625H13.75V123.75Z" fill="#FE6D00"/>
<path d="M20.625 130.625H27.5V137.5H20.625V130.625Z" fill="#FE6D00"/>
<path d="M185.625 6.875H34.375C33.4633 6.875 32.589 7.23716 31.9443 7.88182C31.2997 8.52648 30.9375 9.40082 30.9375 10.3125V34.375C30.9319 43.3173 34.1009 51.9712 39.8799 58.7952C45.6589 65.6192 53.6727 70.1702 62.4938 71.6375C65.775 79.339 70.8718 86.1317 77.3487 91.4354C83.8256 96.739 91.4901 100.396 99.6875 102.094V116.875H96.25C95.3383 116.875 94.464 117.237 93.8193 117.882C93.1747 118.526 92.8125 119.401 92.8125 120.312V130.625H89.375C85.4157 130.635 81.5804 132.007 78.5132 134.511C75.4461 137.015 73.3338 140.498 72.5313 144.375H65.3125C64.4008 144.375 63.5265 144.737 62.8818 145.382C62.2372 146.026 61.875 146.901 61.875 147.812V209.688C61.875 210.599 62.2372 211.474 62.8818 212.118C63.5265 212.763 64.4008 213.125 65.3125 213.125H154.688C155.599 213.125 156.474 212.763 157.118 212.118C157.763 211.474 158.125 210.599 158.125 209.688V147.812C158.125 146.901 157.763 146.026 157.118 145.382C156.474 144.737 155.599 144.375 154.688 144.375H147.469C146.666 140.498 144.554 137.015 141.487 134.511C138.42 132.007 134.584 130.635 130.625 130.625H127.188V120.312C127.188 119.401 126.825 118.526 126.181 117.882C125.536 117.237 124.662 116.875 123.75 116.875H120.313V102.094C128.51 100.396 136.174 96.739 142.651 91.4354C149.128 86.1317 154.225 79.339 157.506 71.6375C166.327 70.1702 174.341 65.6192 180.12 58.7952C185.899 51.9712 189.068 43.3173 189.063 34.375V10.3125C189.063 9.40082 188.7 8.52648 188.056 7.88182C187.411 7.23716 186.537 6.875 185.625 6.875ZM58.4719 52.1813C55.344 50.3735 52.7434 47.779 50.9284 44.6553C49.1133 41.5317 48.1468 37.9876 48.125 34.375V24.0625H58.4375V51.5625C58.4375 51.7687 58.4719 51.975 58.4719 52.1813ZM37.8125 34.375V13.75H58.4375V17.1875H44.6875C43.7758 17.1875 42.9015 17.5497 42.2568 18.1943C41.6122 18.839 41.25 19.7133 41.25 20.625V34.375C41.2865 39.9693 43.0219 45.4204 46.2264 50.0061C49.4308 54.5918 53.953 58.0956 59.1938 60.0531C59.4344 61.4281 59.7094 62.7344 60.0188 64.0406C53.6058 62.1645 47.9745 58.2587 43.9704 52.9095C39.9664 47.5604 37.8056 41.0567 37.8125 34.375ZM99.6875 123.75H120.313V130.625H99.6875V123.75ZM106.563 116.875V102.953C107.697 103.022 108.831 103.125 110 103.125C111.169 103.125 112.303 103.022 113.438 102.953V116.875H106.563ZM151.25 151.25V206.25H68.75V151.25H151.25ZM130.625 137.5C132.757 137.506 134.835 138.169 136.576 139.4C138.317 140.63 139.636 142.367 140.353 144.375H79.6469C80.3641 142.367 81.6831 140.63 83.4241 139.4C85.1651 138.169 87.2432 137.506 89.375 137.5H130.625ZM154.688 51.5625C154.688 63.4144 149.979 74.7808 141.599 83.1613C133.218 91.5419 121.852 96.25 110 96.25C98.1481 96.25 86.7817 91.5419 78.4012 83.1613C70.0206 74.7808 65.3125 63.4144 65.3125 51.5625V13.75H154.688V51.5625ZM161.563 51.5625V24.0625H171.875V34.375C171.853 37.9876 170.887 41.5317 169.072 44.6553C167.257 47.779 164.656 50.3735 161.528 52.1813C161.528 51.975 161.563 51.7687 161.563 51.5625ZM182.188 34.375C182.194 41.0567 180.034 47.5604 176.03 52.9095C172.025 58.2587 166.394 62.1645 159.981 64.0406C160.291 62.7344 160.566 61.4281 160.806 60.0531C166.047 58.0956 170.569 54.5918 173.774 50.0061C176.978 45.4204 178.714 39.9693 178.75 34.375V20.625C178.75 19.7133 178.388 18.839 177.743 18.1943C177.099 17.5497 176.224 17.1875 175.313 17.1875H161.563V13.75H182.188V34.375Z" fill="#0E3594"/>
<path d="M140.938 158.125H79.0625C78.1508 158.125 77.2765 158.487 76.6318 159.132C75.9872 159.776 75.625 160.651 75.625 161.562V195.938C75.625 196.849 75.9872 197.724 76.6318 198.368C77.2765 199.013 78.1508 199.375 79.0625 199.375H140.938C141.849 199.375 142.724 199.013 143.368 198.368C144.013 197.724 144.375 196.849 144.375 195.938V161.562C144.375 160.651 144.013 159.776 143.368 159.132C142.724 158.487 141.849 158.125 140.938 158.125ZM137.5 192.5H82.5V165H137.5V192.5Z" fill="#0E3594"/>
<path d="M92.8125 175.312H96.25C97.1617 175.312 98.036 174.95 98.6807 174.306C99.3253 173.661 99.6875 172.787 99.6875 171.875C99.6875 170.963 99.3253 170.089 98.6807 169.444C98.036 168.8 97.1617 168.438 96.25 168.438H92.8125C91.9008 168.438 91.0265 168.8 90.3818 169.444C89.7372 170.089 89.375 170.963 89.375 171.875C89.375 172.787 89.7372 173.661 90.3818 174.306C91.0265 174.95 91.9008 175.312 92.8125 175.312Z" fill="#FE6D00"/>
<path d="M92.8125 189.062H96.25C97.1617 189.062 98.036 188.7 98.6807 188.056C99.3253 187.411 99.6875 186.537 99.6875 185.625C99.6875 184.713 99.3253 183.839 98.6807 183.194C98.036 182.55 97.1617 182.188 96.25 182.188H92.8125C91.9008 182.188 91.0265 182.55 90.3818 183.194C89.7372 183.839 89.375 184.713 89.375 185.625C89.375 186.537 89.7372 187.411 90.3818 188.056C91.0265 188.7 91.9008 189.062 92.8125 189.062Z" fill="#FE6D00"/>
<path d="M106.562 175.312H127.188C128.099 175.312 128.974 174.95 129.618 174.306C130.263 173.661 130.625 172.787 130.625 171.875C130.625 170.963 130.263 170.089 129.618 169.444C128.974 168.8 128.099 168.438 127.188 168.438H106.562C105.651 168.438 104.776 168.8 104.132 169.444C103.487 170.089 103.125 170.963 103.125 171.875C103.125 172.787 103.487 173.661 104.132 174.306C104.776 174.95 105.651 175.312 106.562 175.312Z" fill="#FE6D00"/>
<path d="M106.562 189.062H127.188C128.099 189.062 128.974 188.7 129.618 188.056C130.263 187.411 130.625 186.537 130.625 185.625C130.625 184.713 130.263 183.839 129.618 183.194C128.974 182.55 128.099 182.188 127.188 182.188H106.562C105.651 182.188 104.776 182.55 104.132 183.194C103.487 183.839 103.125 184.713 103.125 185.625C103.125 186.537 103.487 187.411 104.132 188.056C104.776 188.7 105.651 189.062 106.562 189.062Z" fill="#FE6D00"/>
<path d="M131.159 37.8126H119.99L116.553 27.1907C116.101 25.8152 115.226 24.6176 114.053 23.7685C112.88 22.9195 111.469 22.4624 110.022 22.4624C108.574 22.4624 107.163 22.9195 105.99 23.7685C104.817 24.6176 103.942 25.8152 103.49 27.1907L100.053 37.8126H88.8431C87.3912 37.8123 85.9764 38.2717 84.8016 39.125C83.6268 39.9782 82.7523 41.1815 82.3035 42.5623C81.8547 43.9432 81.8546 45.4307 82.3031 46.8116C82.7517 48.1925 83.626 49.396 84.8006 50.2494L93.8344 56.8151L90.3969 67.4369C89.9471 68.8184 89.9465 70.3068 90.3951 71.6886C90.8438 73.0704 91.7187 74.2746 92.8943 75.1283C94.0698 75.982 95.4856 76.4413 96.9384 76.4404C98.3913 76.4395 99.8065 75.9784 100.981 75.1232L110.001 68.5576L119.035 75.1232C120.204 75.9916 121.621 76.4605 123.077 76.4605C124.533 76.4605 125.951 75.9916 127.12 75.1232C128.306 74.2801 129.19 73.0775 129.64 71.6932C130.09 70.309 130.083 68.8166 129.619 67.4369L126.157 56.8151L135.194 50.2494C136.369 49.3963 137.243 48.1935 137.691 46.8132C138.14 45.433 138.14 43.9461 137.693 42.5656C137.245 41.1851 136.371 39.9818 135.198 39.128C134.024 38.2742 132.61 37.8137 131.159 37.8126ZM122.122 51.2532C120.947 52.1068 120.073 53.3102 119.625 54.6909C119.177 56.0717 119.177 57.5589 119.626 58.9394L123.063 69.5613L114.03 62.9991C112.856 62.142 111.44 61.6801 109.987 61.6801C108.534 61.6801 107.118 62.142 105.945 62.9991L96.9384 69.5613L100.376 58.9394C100.825 57.5592 100.826 56.0722 100.378 54.6915C99.9305 53.3108 99.0573 52.1073 97.8837 51.2532L88.8431 44.6876H100.012C101.466 44.6904 102.883 44.232 104.061 43.3784C105.238 42.5248 106.114 41.3199 106.563 39.9369L110.001 29.2807V29.3219L113.438 39.9438C113.889 41.3255 114.766 42.5289 115.943 43.3812C117.12 44.2335 118.537 44.6908 119.99 44.6876H131.159L122.122 51.2532Z" fill="#FE6D00"/>
<path d="M165 99.6875H171.875V106.562H165V99.6875Z" fill="#FE6D00"/>
<path d="M171.875 106.562H178.75V113.438H171.875V106.562Z" fill="#FE6D00"/>
<path d="M165 113.438H171.875V120.312H165V113.438Z" fill="#FE6D00"/>
<path d="M158.125 106.562H165V113.438H158.125V106.562Z" fill="#FE6D00"/>
<path d="M48.125 99.6875H55V106.562H48.125V99.6875Z" fill="#FE6D00"/>
<path d="M41.25 106.562H48.125V113.438H41.25V106.562Z" fill="#FE6D00"/>
<path d="M48.125 113.438H55V120.312H48.125V113.438Z" fill="#FE6D00"/>
<path d="M55 106.562H61.875V113.438H55V106.562Z" fill="#FE6D00"/>
</svg>
