<svg width="220" height="220" viewBox="0 0 220 220" fill="none" xmlns="http://www.w3.org/2000/svg">
<path d="M185.625 3.4375H137.5C131.814 3.4375 127.188 8.06437 127.188 13.75V20.625C119.604 20.625 113.438 26.7919 113.438 34.375C113.438 41.9581 119.604 48.125 127.188 48.125V65.3125H154.688V58.4375C154.688 54.6459 157.771 51.5625 161.562 51.5625C165.354 51.5625 168.438 54.6459 168.438 58.4375V65.3125H185.625C191.311 65.3125 195.938 60.6856 195.938 55V13.75C195.938 8.06437 191.311 3.4375 185.625 3.4375ZM189.062 55C189.062 56.8941 187.522 58.4375 185.625 58.4375H175.312C175.312 50.8544 169.146 44.6875 161.562 44.6875C153.979 44.6875 147.812 50.8544 147.812 58.4375H134.062V41.25H127.188C123.396 41.25 120.312 38.1666 120.312 34.375C120.312 30.5834 123.396 27.5 127.188 27.5H134.062V13.75C134.062 11.8559 135.603 10.3125 137.5 10.3125H185.625C187.522 10.3125 189.062 11.8559 189.062 13.75V55Z" fill="#FE6D00"/>
<path d="M127.188 72.1875C119.604 72.1875 113.438 78.3544 113.438 85.9375H99.6875V68.75H92.8125C89.0209 68.75 85.9375 65.6666 85.9375 61.875C85.9375 58.0834 89.0209 55 92.8125 55H99.6875V24.0625H90.4716C53.8553 24.0625 24.0625 53.8553 24.0625 90.4716C24.0625 110.471 32.9416 129.205 48.4206 141.869L61.875 152.879V162.198C57.8841 163.622 55 167.403 55 171.878C55 176.632 58.2484 180.606 62.6312 181.792C62.1534 182.978 61.875 184.267 61.875 185.625C61.875 190.169 64.8484 193.992 68.9356 195.363C70.3588 207.285 80.5166 216.562 92.8125 216.562C105.108 216.562 115.266 207.285 116.689 195.363C120.777 193.992 123.75 190.169 123.75 185.625C123.75 184.267 123.472 182.978 122.994 181.789C127.377 180.599 130.625 176.629 130.625 171.875C130.625 167.399 127.741 163.618 123.75 162.195V152.876L137.204 141.866C152.683 129.205 161.562 110.471 161.562 90.4716V85.9375H140.938C140.938 78.3544 134.771 72.1875 127.188 72.1875ZM90.4716 30.9375H92.8125V48.125C85.2294 48.125 79.0625 54.2919 79.0625 61.875C79.0625 69.4581 85.2294 75.625 92.8125 75.625V85.9375H79.0625C79.0625 78.3544 72.8956 72.1875 65.3125 72.1875C57.7294 72.1875 51.5625 78.3544 51.5625 85.9375H31.1094C33.4331 55.22 59.1697 30.9375 90.4716 30.9375ZM52.7725 136.548C39.5003 125.689 31.6422 109.856 30.9856 92.8125H58.4375V85.9375C58.4375 82.1459 61.5209 79.0625 65.3125 79.0625C69.1041 79.0625 72.1875 82.1459 72.1875 85.9375V92.8125H92.8125V106.562C85.2294 106.562 79.0625 112.729 79.0625 120.312C79.0625 127.896 85.2294 134.062 92.8125 134.062V161.562H68.75V149.621L52.7725 136.548ZM92.8125 209.688C84.5144 209.688 77.5706 203.772 75.9722 195.938H109.653C108.054 203.772 101.111 209.688 92.8125 209.688ZM113.438 189.062H72.1875C70.29 189.062 68.75 187.519 68.75 185.625C68.75 183.731 70.29 182.188 72.1875 182.188H113.438C115.335 182.188 116.875 183.731 116.875 185.625C116.875 187.519 115.335 189.062 113.438 189.062ZM120.312 175.312H113.438H72.1875H65.3125C63.415 175.312 61.875 173.769 61.875 171.875C61.875 169.981 63.415 168.438 65.3125 168.438H120.312C122.21 168.438 123.75 169.981 123.75 171.875C123.75 173.769 122.21 175.312 120.312 175.312ZM132.852 136.548L116.875 149.621V161.562H99.6875V127.188H92.8125C89.0209 127.188 85.9375 124.104 85.9375 120.312C85.9375 116.521 89.0209 113.438 92.8125 113.438H99.6875V92.8125H120.312V85.9375C120.312 82.1459 123.396 79.0625 127.188 79.0625C130.979 79.0625 134.062 82.1459 134.062 85.9375V92.8125H154.639C153.983 109.856 146.125 125.689 132.852 136.548Z" fill="#0E3594"/>
</svg>
