<svg width="220" height="220" viewBox="0 0 220 220" fill="none" xmlns="http://www.w3.org/2000/svg">
<g clip-path="url(#clip0_1107_5225)">
<path d="M115.44 104.565C113.76 102.885 111.04 102.885 109.36 104.565C107.685 106.241 107.685 108.96 109.36 110.641C111.04 112.316 113.76 112.316 115.44 110.641C117.116 108.96 117.116 106.241 115.44 104.565Z" fill="#0E3594"/>
<path d="M170.128 49.8736C161.732 41.4779 148.14 41.4775 139.744 49.8736C131.369 58.2477 131.369 71.8774 139.745 80.2584C148.122 88.6304 161.752 88.6339 170.128 80.2576C178.523 71.8623 178.525 58.2701 170.128 49.8736ZM164.051 74.1805C159.027 79.2053 150.848 79.2053 145.821 74.1814C140.796 69.1532 140.796 60.9745 145.821 55.9502C150.858 50.913 159.013 50.9121 164.051 55.9502C169.089 60.987 169.089 69.1429 164.051 74.1805Z" fill="#FE6D00"/>
<path d="M218.741 1.25859C217.897 0.415119 216.745 -0.0420672 215.548 0.00304992C214.577 0.0378545 191.444 0.967696 163.947 10.6868C141.912 18.4667 123.546 29.6055 109.358 43.7937C106.179 46.973 103.085 50.3443 100.125 53.8467C86.0969 45.5889 74.8554 48.1782 67.7489 51.9814C51.386 60.7384 41.2578 84.5155 41.2578 101.523C41.2591 103.26 42.3062 104.827 43.9116 105.492C44.4431 105.712 45.0017 105.819 45.5551 105.819C46.6736 105.819 47.7723 105.382 48.5943 104.561C57.2237 95.9314 67.8674 96.4711 71.3445 96.9283L72.8492 98.4331C69.8878 105.48 67.5022 112.487 65.7525 119.303C65.1209 121.769 65.334 124.379 66.2729 126.766C62.1359 128.673 58.1445 131.472 54.6692 134.947C43.6086 146.008 41.3627 172.964 41.2724 174.106C41.1736 175.36 41.6282 176.594 42.5172 177.483C43.3263 178.292 44.4207 178.742 45.5551 178.742C45.6677 178.742 45.7807 178.737 45.8937 178.728C47.0358 178.638 73.9926 176.392 85.0532 165.332C88.5272 161.858 91.3262 157.867 93.2327 153.731C95.7601 154.725 98.3615 154.847 100.701 154.248C107.513 152.498 114.519 150.114 121.567 147.152L123.072 148.657C123.529 152.134 124.068 162.778 115.439 171.406C114.211 172.635 113.843 174.483 114.508 176.089C115.173 177.694 116.74 178.741 118.478 178.741C135.485 178.741 159.261 168.613 168.018 152.25C171.822 145.144 174.411 133.903 166.153 119.874C169.654 116.915 173.026 113.821 176.206 110.641C190.394 96.4527 201.533 78.0866 209.313 56.054C219.032 28.5549 219.962 5.42226 219.996 4.45117C220.039 3.25879 219.584 2.1025 218.741 1.25859ZM50.8647 92.2804C53.534 79.3627 61.2868 65.1878 71.8055 59.558C78.8348 55.7966 86.518 56.1652 94.6872 60.637C87.7276 69.7902 81.6772 79.6515 76.6339 90.0649C76.5699 90.0254 75.7965 89.053 74.3596 88.729C73.7688 88.5954 62.3997 86.1501 50.8647 92.2804ZM78.9766 159.255C73.0684 165.163 59.2088 168.279 50.4488 169.551C51.7215 160.791 54.8381 146.932 60.7458 141.024C64.0544 137.715 67.8907 135.207 71.7467 133.794L86.2065 148.254C84.7937 152.11 82.2856 155.946 78.9766 159.255ZM98.566 145.923C97.3225 146.241 95.8822 145.774 94.8114 144.705C89.2525 139.146 87.0779 136.971 86.3955 136.289C85.1443 135.038 82.0759 131.97 75.2985 125.192C74.2268 124.118 73.7593 122.678 74.0769 121.437C75.4531 116.077 77.2531 110.578 79.4419 105.026L114.975 140.559C109.422 142.748 103.924 144.547 98.566 145.923ZM160.443 148.195C154.813 158.713 140.638 166.467 127.721 169.135C131.84 161.385 132.748 151.519 131.243 145.537C130.893 144.147 129.987 143.448 129.936 143.366C140.349 138.323 150.21 132.273 159.364 125.313C163.835 133.483 164.204 141.167 160.443 148.195ZM170.13 104.564C166.258 108.436 162.089 112.176 157.738 115.681C147.279 124.103 135.767 131.237 123.484 136.915L83.0852 96.5171C88.764 84.2341 95.8976 72.7219 104.319 62.2638C107.827 57.9098 111.567 53.7401 115.437 49.8703C128.166 37.1404 144.595 27.0093 164.28 19.7166L200.284 55.7209C192.992 75.4053 182.861 91.834 170.13 104.564ZM203.376 46.6584L173.342 16.625C189.705 11.5427 203.94 9.63963 211.046 8.95557C210.361 16.0622 208.457 30.2972 203.376 46.6584Z" fill="#0E3594"/>
<path d="M103.283 177.482C101.605 175.804 98.8838 175.805 97.2063 177.483L85.0547 189.638C83.3772 191.317 83.3777 194.037 85.0556 195.715C86.7344 197.392 89.4552 197.392 91.1326 195.714L103.284 183.558C104.962 181.88 104.961 179.159 103.283 177.482Z" fill="#FE6D00"/>
<path d="M42.5189 116.716C40.8414 115.038 38.1211 115.038 36.4423 116.716L24.2864 128.867C22.6081 130.545 22.6076 133.265 24.2851 134.944C25.9622 136.621 28.6826 136.623 30.3618 134.945L42.5176 122.793C44.196 121.116 44.1964 118.395 42.5189 116.716Z" fill="#FE6D00"/>
<path d="M72.9014 183.562C71.2243 181.884 68.5031 181.884 66.8248 183.562L37.7178 212.664C36.0394 214.342 36.0394 217.063 37.7174 218.741C39.3944 220.419 42.1156 220.42 43.794 218.742L72.901 189.639C74.5793 187.961 74.5793 185.24 72.9014 183.562Z" fill="#FE6D00"/>
<path d="M38.5264 183.562C36.8489 181.884 34.1277 181.884 32.4498 183.562L3.34281 212.664C1.66445 214.342 1.66445 217.063 3.34238 218.741C5.01944 220.419 7.74065 220.42 9.419 218.742L38.526 189.639C40.2043 187.961 40.2043 185.24 38.5264 183.562Z" fill="#FE6D00"/>
<path d="M36.4377 147.098C34.7602 145.42 32.039 145.42 30.3611 147.098L1.25839 176.205C-0.419535 177.884 -0.419535 180.604 1.25882 182.282C2.93675 183.96 5.65752 183.96 7.33545 182.282L36.4381 153.175C38.1161 151.497 38.1161 148.776 36.4377 147.098Z" fill="#FE6D00"/>
<path d="M133.669 86.3322C131.991 84.6542 129.271 84.6542 127.592 86.3322L121.516 92.4079C119.838 94.0859 119.838 96.8066 121.516 98.485C123.195 100.163 125.915 100.163 127.593 98.485L133.669 92.4092C135.347 90.7313 135.347 88.0105 133.669 86.3322Z" fill="#FE6D00"/>
</g>
<defs>
<clipPath id="clip0_1107_5225">
<rect width="220" height="220" fill="white"/>
</clipPath>
</defs>
</svg>
