<svg width="220" height="220" viewBox="0 0 220 220" fill="none" xmlns="http://www.w3.org/2000/svg">
<g clip-path="url(#clip0_1108_5258)">
<path d="M169.123 42.1113C180.691 42.1113 190.089 32.6679 190.089 21.0557C190.089 9.44342 180.691 0 169.123 0C157.556 0 148.158 9.4886 148.158 21.0557C148.158 32.6227 157.556 42.1113 169.123 42.1113ZM169.123 10.8893C174.681 10.8893 179.245 15.4529 179.245 21.1008C179.245 26.7488 174.726 31.3124 169.123 31.3124C163.521 31.3124 159.002 26.7036 159.002 21.0557C159.002 15.4077 163.521 10.8893 169.123 10.8893Z" fill="#FE6D00"/>
<path d="M45.4985 177.889C33.9314 177.889 24.5332 187.333 24.5332 198.945C24.5332 210.557 33.9314 220 45.4985 220C57.0656 220 66.4638 210.557 66.4638 198.945C66.4638 187.333 57.0204 177.889 45.4985 177.889ZM45.4985 209.156C39.9409 209.156 35.3773 204.593 35.3773 198.945C35.3773 193.342 39.8957 188.733 45.4985 188.733C51.1013 188.733 55.6197 193.297 55.6197 198.945C55.5745 204.548 51.0561 209.156 45.4985 209.156Z" fill="#0E3594"/>
<path d="M97.3229 93.3045C98.3621 94.3437 99.7628 94.8859 101.164 94.8859C102.564 94.8859 103.92 94.3437 105.004 93.3045C107.128 91.1808 107.128 87.7468 105.004 85.6232L93.7082 74.3273L105.004 63.0313C107.128 60.9077 107.128 57.4737 105.004 55.3501C102.881 53.2264 99.4466 53.2264 97.3229 55.3501L86.027 66.646L74.731 55.3501C72.6074 53.2264 69.1734 53.2264 67.0498 55.3501C64.9261 57.4737 64.9261 60.9077 67.0498 63.0313L78.3457 74.3273L67.0498 85.6232C64.9261 87.7468 64.9261 91.1808 67.0498 93.3045C68.089 94.3437 69.4897 94.8859 70.8904 94.8859C72.2911 94.8859 73.6466 94.3437 74.731 93.3045L86.027 82.0085L97.3229 93.3045Z" fill="#FE6D00"/>
<path d="M188.096 142.329C185.972 140.205 182.538 140.205 180.415 142.329L169.119 153.625L157.823 142.329C155.699 140.205 152.265 140.205 150.142 142.329C148.018 144.453 148.018 147.887 150.142 150.01L161.438 161.306L150.142 172.602C148.018 174.726 148.018 178.16 150.142 180.283C151.181 181.323 152.581 181.865 153.982 181.865C155.383 181.865 156.738 181.323 157.823 180.283L169.119 168.988L180.415 180.283C181.454 181.323 182.855 181.865 184.255 181.865C185.656 181.865 187.012 181.323 188.096 180.283C190.22 178.16 190.22 174.726 188.096 172.602L176.8 161.306L188.096 150.01C190.22 147.841 190.22 144.453 188.096 142.329Z" fill="#FE6D00"/>
<path d="M123.85 170.298C121.726 168.175 118.292 168.175 116.169 170.298L104.873 181.594L93.5767 170.298C91.4531 168.175 88.0191 168.175 85.8955 170.298C83.7718 172.422 83.7718 175.856 85.8955 177.98L97.1914 189.275L85.8955 200.571C83.7718 202.695 83.7718 206.129 85.8955 208.253C86.9347 209.292 88.3354 209.834 89.7361 209.834C91.1368 209.834 92.4923 209.292 93.5767 208.253L104.873 196.957L116.169 208.253C117.208 209.292 118.609 209.834 120.009 209.834C121.41 209.834 122.765 209.292 123.85 208.253C125.974 206.129 125.974 202.695 123.85 200.571L112.554 189.275L123.85 177.98C125.928 175.856 125.928 172.422 123.85 170.298Z" fill="#FE6D00"/>
<path d="M88.7404 129.541C91.7225 129.541 94.1625 127.101 94.1625 124.119C94.1625 121.137 91.7225 118.697 88.7404 118.697C85.7583 118.697 83.3184 121.137 83.3184 124.119C83.3184 127.101 85.7131 129.541 88.7404 129.541Z" fill="#0E3594"/>
<path d="M48.5733 145.538C49.4769 146.125 50.5162 146.441 51.5554 146.441C53.3176 146.441 55.0345 145.583 56.0738 144.002C57.7004 141.516 57.0226 138.128 54.5375 136.501C52.0524 134.874 48.6636 135.552 47.037 138.037C45.3652 140.522 46.043 143.911 48.5733 145.538Z" fill="#0E3594"/>
<path d="M65.5141 122.358C62.7578 123.578 61.5379 126.786 62.7578 129.497C63.6615 131.531 65.6496 132.706 67.7281 132.706C68.451 132.706 69.2191 132.57 69.9421 132.254C72.6983 131.034 73.9182 127.826 72.6983 125.115C71.4327 122.358 68.2251 121.138 65.5141 122.358Z" fill="#0E3594"/>
<path d="M110.197 129.541C113.192 129.541 115.62 127.114 115.62 124.119C115.62 121.125 113.192 118.697 110.197 118.697C107.203 118.697 104.775 121.125 104.775 124.119C104.775 127.114 107.203 129.541 110.197 129.541Z" fill="#0E3594"/>
<path d="M45.5002 166.728C46.9461 166.728 48.3468 166.141 49.3408 165.147C50.3349 164.153 50.9222 162.752 50.9222 161.306C50.9222 159.86 50.3349 158.46 49.3408 157.466C48.3468 156.472 46.9461 155.884 45.5002 155.884C44.0543 155.884 42.6536 156.472 41.6596 157.466C40.6655 158.46 40.0781 159.86 40.0781 161.306C40.0781 162.752 40.6655 164.153 41.6596 165.147C42.6536 166.141 44.0543 166.728 45.5002 166.728Z" fill="#0E3594"/>
<path d="M193.881 76.9027L172.915 55.9375C170.792 53.8138 167.358 53.8138 165.234 55.9375L144.269 76.9027C142.145 79.0264 142.145 82.4604 144.269 84.584C146.392 86.7076 149.826 86.7076 151.95 84.584L163.653 72.8814V86.8884C163.653 104.42 149.284 118.653 131.617 118.653C128.635 118.653 126.195 121.093 126.195 124.075C126.195 127.057 128.635 129.497 131.617 129.497C155.249 129.497 174.497 110.384 174.497 86.8884V72.8362L186.199 84.5388C187.239 85.578 188.639 86.1202 190.04 86.1202C191.441 86.1202 192.796 85.578 193.881 84.5388C196.004 82.4604 196.004 79.0264 193.881 76.9027Z" fill="#0E3594"/>
</g>
<defs>
<clipPath id="clip0_1108_5258">
<rect width="220" height="220" fill="white"/>
</clipPath>
</defs>
</svg>
