<svg width="634" height="232" viewBox="0 0 634 232" fill="none" xmlns="http://www.w3.org/2000/svg">
<path d="M220.049 232H148.652V113.902C148.652 84.2653 140.569 66.3037 112.279 66.3037C86.2348 66.3037 71.8655 84.2653 71.8655 119.74V232H0.916918V7.47926H71.8655V37.116C86.2348 14.2149 108.687 0.743621 141.467 0.743621C170.655 0.743621 192.209 10.6225 205.231 35.3198C218.253 14.2149 239.358 0.743621 272.587 0.743621C338.147 0.743621 367.784 25.89 367.784 109.412V232H296.386V117.045C296.386 84.2653 288.303 66.3037 260.014 66.3037C233.969 66.3037 220.049 84.2653 220.049 113.902V232Z" fill="#0E3594"/>
<path d="M562.321 232V128.271L477.901 232H386.745L516.967 71.2431H413.239V7.47926H633.269V232H562.321Z" fill="#FE6D00"/>
</svg>
