<svg width="130" height="130" viewBox="0 0 130 130" fill="none" xmlns="http://www.w3.org/2000/svg">
<path d="M66.4062 31.25H57.9688C57.1925 31.25 56.5625 30.62 56.5625 29.8438C56.5625 29.0675 57.1925 28.4375 57.9688 28.4375H66.4062C67.1825 28.4375 67.8125 29.0675 67.8125 29.8438C67.8125 30.62 67.1825 31.25 66.4062 31.25Z" fill="#0E3594"/>
<path d="M77.6562 107.188H46.7188C42.8403 107.188 39.6875 104.032 39.6875 100.156V80.4688C39.6875 79.6925 40.3175 79.0625 41.0938 79.0625C41.87 79.0625 42.5 79.6925 42.5 80.4688V100.156C42.5 102.482 44.3928 104.375 46.7188 104.375H77.6562C79.9822 104.375 81.875 102.482 81.875 100.156V52.3438C81.875 51.5675 82.505 50.9375 83.2812 50.9375C84.0575 50.9375 84.6875 51.5675 84.6875 52.3438V100.156C84.6875 104.032 81.5347 107.188 77.6562 107.188Z" fill="#0E3594"/>
<path d="M83.2812 34.0625C82.505 34.0625 81.875 33.4325 81.875 32.6562V29.8438C81.875 27.5178 79.9822 25.625 77.6562 25.625H46.7188C44.3928 25.625 42.5 27.5178 42.5 29.8438V32.6562C42.5 33.4325 41.87 34.0625 41.0938 34.0625C40.3175 34.0625 39.6875 33.4325 39.6875 32.6562V29.8438C39.6875 25.9681 42.8403 22.8125 46.7188 22.8125H77.6562C81.5347 22.8125 84.6875 25.9681 84.6875 29.8438V32.6562C84.6875 33.4325 84.0575 34.0625 83.2812 34.0625Z" fill="#0E3594"/>
<path d="M60.7812 90.3125H49.5312C48.755 90.3125 48.125 89.6825 48.125 88.9062C48.125 88.13 48.755 87.5 49.5312 87.5H60.7812C61.5575 87.5 62.1875 88.13 62.1875 88.9062C62.1875 89.6825 61.5575 90.3125 60.7812 90.3125Z" fill="#FF6700"/>
<path d="M69.2188 95.9375H49.5312C48.755 95.9375 48.125 95.3075 48.125 94.5312C48.125 93.755 48.755 93.125 49.5312 93.125H69.2188C69.995 93.125 70.625 93.755 70.625 94.5312C70.625 95.3075 69.995 95.9375 69.2188 95.9375Z" fill="#FF6700"/>
<path d="M74.8438 84.6875H49.5312C48.755 84.6875 48.125 84.0575 48.125 83.2812C48.125 82.505 48.755 81.875 49.5312 81.875H74.8438C75.62 81.875 76.25 82.505 76.25 83.2812C76.25 84.0575 75.62 84.6875 74.8438 84.6875Z" fill="#FF6700"/>
<path d="M45.3125 59.375C41.4341 59.375 38.2812 56.2194 38.2812 52.3438C38.2812 48.4681 41.4341 45.3125 45.3125 45.3125C49.1909 45.3125 52.3438 48.4681 52.3438 52.3438C52.3438 56.2194 49.1909 59.375 45.3125 59.375ZM45.3125 48.125C42.9866 48.125 41.0938 50.0178 41.0938 52.3438C41.0938 54.6697 42.9866 56.5625 45.3125 56.5625C47.6384 56.5625 49.5312 54.6697 49.5312 52.3438C49.5312 50.0178 47.6384 48.125 45.3125 48.125Z" fill="#FF6700"/>
<path d="M45.3118 76.25C40.3787 76.25 35.6453 74.3881 31.9834 71.0131C31.6065 70.6644 31.449 70.1384 31.5728 69.6434C32.6528 65.2531 36.5678 62.1875 41.0931 62.1875H49.5306C54.0559 62.1875 57.9709 65.2531 59.0537 69.6406C59.1775 70.1384 59.0171 70.6644 58.6431 71.0103C54.9784 74.3881 50.245 76.25 45.3118 76.25ZM34.5484 69.5197C40.629 74.585 49.9946 74.585 56.0753 69.5197C55.0628 66.8225 52.4781 65 49.5306 65H41.0931C38.1456 65 35.5609 66.8225 34.5484 69.5197Z" fill="#FF6700"/>
<path d="M45.3125 76.25C34.4591 76.25 25.625 67.4187 25.625 56.5625C25.625 45.7063 34.4591 36.875 45.3125 36.875C56.1659 36.875 65 45.7063 65 56.5625C65 67.4187 56.1659 76.25 45.3125 76.25ZM45.3125 39.6875C36.0059 39.6875 28.4375 47.2559 28.4375 56.5625C28.4375 65.8691 36.0059 73.4375 45.3125 73.4375C54.6191 73.4375 62.1875 65.8691 62.1875 56.5625C62.1875 47.2559 54.6191 39.6875 45.3125 39.6875Z" fill="#0E3594"/>
<path d="M32.6562 84.5469C31.88 84.5469 31.25 84.0575 31.25 83.2813V83C31.25 82.2237 31.88 81.5938 32.6562 81.5938C33.4325 81.5938 34.0625 82.2237 34.0625 83C34.0625 83.7762 33.4325 84.5469 32.6562 84.5469Z" fill="#0E3594"/>
<path d="M32.6562 90.1719C31.88 90.1719 31.25 89.6825 31.25 88.9063V88.625C31.25 87.8487 31.88 87.2188 32.6562 87.2188C33.4325 87.2188 34.0625 87.8487 34.0625 88.625C34.0625 89.4012 33.4325 90.1719 32.6562 90.1719Z" fill="#0E3594"/>
<path d="M32.6562 95.7969C31.88 95.7969 31.25 95.3075 31.25 94.5313V94.25C31.25 93.4737 31.88 92.8438 32.6562 92.8438C33.4325 92.8438 34.0625 93.4737 34.0625 94.25C34.0625 95.0262 33.4325 95.7969 32.6562 95.7969Z" fill="#0E3594"/>
<path d="M88.4563 95.9375H86.0938C85.3175 95.9375 84.6875 95.3075 84.6875 94.5312C84.6875 93.755 85.3175 93.125 86.0938 93.125H87.3228L88.0119 89.9328C88.1244 89.4041 88.5322 88.9906 89.0553 88.8641C90.3828 88.5434 91.6766 88.0034 92.9 87.2581C93.3528 86.9769 93.935 86.9853 94.3878 87.2722L97.1722 89.0525L98.8963 87.3144L97.1159 84.5525C96.8234 84.0997 96.8178 83.5175 97.0963 83.0591C97.8416 81.8356 98.3816 80.5419 98.6994 79.2144C98.8259 78.6913 99.2366 78.2862 99.7625 78.1681L102.966 77.4566V75.0463L99.7625 74.3347C99.2366 74.2166 98.8259 73.8116 98.6994 73.2884C98.3816 71.9609 97.8388 70.6672 97.0963 69.4437C96.815 68.9853 96.8206 68.4059 97.1131 67.9531L98.8963 65.1659L97.175 63.4447L94.3878 65.2278C93.9378 65.5175 93.3556 65.5231 92.9 65.2419C91.6738 64.4966 90.38 63.9566 89.0553 63.6359C88.5294 63.5094 88.1244 63.0931 88.0119 62.5672L87.3228 59.375H86.0938C85.3175 59.375 84.6875 58.745 84.6875 57.9688C84.6875 57.1925 85.3175 56.5625 86.0938 56.5625H88.4563C89.1172 56.5625 89.6909 57.0266 89.8287 57.6734L90.5797 61.1413C91.6091 61.4534 92.6188 61.8753 93.5919 62.4013L96.6125 60.4691C97.1694 60.1175 97.8978 60.1906 98.3647 60.6603L101.686 63.9791C102.153 64.4459 102.232 65.1744 101.875 65.7313L99.9425 68.7519C100.468 69.7278 100.89 70.7375 101.203 71.7697L104.676 72.5403C105.32 72.6838 105.778 73.2547 105.778 73.9128V78.5816C105.778 79.2397 105.32 79.8134 104.676 79.9541L101.203 80.7247C100.89 81.7569 100.468 82.7666 99.9425 83.7397L101.872 86.7322C102.232 87.2862 102.156 88.0175 101.689 88.4844L98.3675 91.8313C97.9006 92.3009 97.1722 92.3825 96.6125 92.0253L93.5919 90.0931C92.6159 90.6191 91.6091 91.0409 90.5797 91.3531L89.8287 94.8209C89.6909 95.4734 89.1172 95.9375 88.4563 95.9375Z" fill="#FF6700"/>
<path d="M89.0543 84.035C88.5256 84.035 88.0193 83.7341 87.7803 83.2222C87.454 82.5191 87.7578 81.6809 88.4609 81.3547C90.4381 80.4322 91.7178 78.4297 91.7178 76.25C91.7178 73.1478 89.195 70.625 86.0928 70.625C85.3306 70.625 84.5965 70.7741 83.9075 71.0666C83.1959 71.3731 82.369 71.0384 82.0653 70.3213C81.7615 69.6069 82.0962 68.7828 82.8106 68.4791C83.8456 68.0375 84.9537 67.8125 86.0928 67.8125C90.7446 67.8125 94.5303 71.5981 94.5303 76.25C94.5303 79.5209 92.6121 82.5247 89.6478 83.9028C89.4537 83.9928 89.254 84.035 89.0543 84.035Z" fill="#0E3594"/>
<path d="M93.125 48.125H76.25C73.1478 48.125 70.625 45.6022 70.625 42.5C70.625 39.3978 73.1478 36.875 76.25 36.875H93.125C96.2272 36.875 98.75 39.3978 98.75 42.5C98.75 45.6022 96.2272 48.125 93.125 48.125ZM76.25 39.6875C74.6975 39.6875 73.4375 40.9503 73.4375 42.5C73.4375 44.0497 74.6975 45.3125 76.25 45.3125H93.125C94.6775 45.3125 95.9375 44.0497 95.9375 42.5C95.9375 40.9503 94.6775 39.6875 93.125 39.6875H76.25Z" fill="#FF6700"/>
</svg>
