<svg width="130" height="130" viewBox="0 0 130 130" fill="none" xmlns="http://www.w3.org/2000/svg">
<path d="M59.8466 28.9968H50.8953C50.8876 28.9968 50.8804 28.9989 50.8728 28.9992C50.8117 28.9999 50.7509 29.0059 50.6909 29.0172C50.6856 29.0172 50.6806 29.0201 50.6753 29.0212C50.6199 29.0333 50.5655 29.0499 50.5128 29.0707C50.4945 29.0776 50.4773 29.0858 50.4598 29.0937C50.4188 29.1123 50.379 29.1335 50.3407 29.1572C50.3248 29.167 50.3087 29.176 50.2933 29.1869C50.2413 29.2221 50.1926 29.2618 50.1477 29.3057L37.4509 41.9587C37.4064 42.0035 37.3662 42.0523 37.3307 42.1045C37.3201 42.1196 37.3111 42.1355 37.3013 42.1511C37.277 42.19 37.2553 42.2305 37.2364 42.2724C37.2288 42.2893 37.2208 42.306 37.2139 42.3232C37.1912 42.3799 37.1735 42.4386 37.161 42.4984V42.5024C37.1496 42.5635 37.1435 42.6255 37.1427 42.6877C37.1427 42.6951 37.1406 42.702 37.1406 42.7094V60.4206C37.1406 60.7014 37.2522 60.9707 37.4507 61.1693C37.6493 61.3679 37.9186 61.4794 38.1994 61.4794C38.4803 61.4794 38.7496 61.3679 38.9482 61.1693C39.1467 60.9707 39.2583 60.7014 39.2583 60.4206V43.7669H48.0894C49.1142 43.7654 50.0965 43.3576 50.821 42.6328C51.5455 41.9081 51.953 40.9256 51.9541 39.9009V31.1145H59.8466C60.1274 31.1145 60.3967 31.0029 60.5953 30.8043C60.7938 30.6058 60.9054 30.3365 60.9054 30.0556C60.9054 29.7748 60.7938 29.5055 60.5953 29.3069C60.3967 29.1084 60.1274 28.9968 59.8466 28.9968ZM49.8364 39.9009C49.836 40.3642 49.6518 40.8084 49.3243 41.1361C48.9968 41.4639 48.5527 41.6484 48.0894 41.6492H40.7607L41.7542 40.6595L49.8364 32.6056V39.9009Z" fill="#0E3594"/>
<path d="M48.2268 98.6341C47.946 98.6341 47.6767 98.7456 47.4781 98.9442C47.2795 99.1428 47.168 99.4121 47.168 99.6929C47.168 99.9737 47.2795 100.243 47.4781 100.442C47.6767 100.64 47.946 100.752 48.2268 100.752H75.6879L75.0171 101.711C74.4946 102.458 74.2904 103.382 74.4493 104.28C74.6082 105.178 75.1172 105.976 75.8645 106.498C76.6117 107.021 77.5359 107.225 78.4337 107.066C79.3315 106.907 80.1294 106.398 80.6519 105.651L94.6101 85.6891V96.595C94.6092 97.1353 94.3942 97.6532 94.0122 98.0353C93.6301 98.4173 93.1122 98.6324 92.5719 98.6333H89.1228C88.842 98.6333 88.5727 98.7448 88.3741 98.9434C88.1755 99.142 88.064 99.4113 88.064 99.6921C88.064 99.9729 88.1755 100.242 88.3741 100.441C88.5727 100.639 88.842 100.751 89.1228 100.751H92.5719C93.6736 100.749 94.7298 100.311 95.5089 99.532C96.2879 98.7529 96.7262 97.6968 96.7278 96.595V82.6609L104.622 71.3712C105.312 70.3868 105.782 69.2649 105.999 68.0822L106.729 64.1312C106.766 63.933 106.745 63.7283 106.669 63.5414C106.594 63.3545 106.466 63.1931 106.302 63.0761C106.138 62.9592 105.943 62.8916 105.742 62.8812C105.541 62.8709 105.34 62.9183 105.165 63.0179L101.689 64.991C100.603 65.6094 99.6669 66.461 98.9492 67.4845L96.727 70.6626V47.1472C96.727 46.8664 96.6154 46.597 96.4169 46.3985C96.2183 46.1999 95.949 46.0884 95.6682 46.0884C95.3874 46.0884 95.118 46.1999 94.9195 46.3985C94.7209 46.597 94.6093 46.8664 94.6093 47.1472V73.0929C94.61 73.2487 94.6454 73.4025 94.7131 73.5429L77.1679 98.6343L48.2268 98.6341ZM100.686 68.6979C101.222 67.9324 101.922 67.2954 102.735 66.8328L104.234 65.9818L103.916 67.6974C103.754 68.5825 103.403 69.4223 102.886 70.1591L94.7904 81.7368L78.9157 104.439C78.8164 104.581 78.69 104.702 78.5439 104.795C78.3977 104.888 78.2346 104.952 78.0639 104.982C77.8932 105.012 77.7182 105.009 77.5489 104.971C77.3797 104.934 77.2194 104.863 77.0773 104.764C76.9353 104.665 76.8142 104.538 76.7209 104.392C76.6277 104.246 76.5642 104.083 76.5339 103.912C76.5037 103.742 76.5074 103.567 76.5449 103.397C76.5823 103.228 76.6527 103.068 76.752 102.926L100.686 68.6979Z" fill="#0E3594"/>
<path d="M22.3544 104.84C29.0298 107.259 40.5455 108.531 41.0323 108.584C41.2881 108.612 41.5451 108.546 41.7555 108.398C41.9659 108.25 42.1154 108.03 42.1761 107.78L44.104 99.8064C44.1373 99.6685 44.1426 99.5252 44.1194 99.3852C44.0963 99.2452 44.0453 99.1112 43.9693 98.9913C43.8934 98.8714 43.7941 98.7679 43.6774 98.6872C43.5607 98.6064 43.429 98.5499 43.29 98.521L42.0724 98.2682L43.8708 91.4367C45.3822 91.554 46.9249 91.5759 48.0444 91.5786C48.9527 91.5803 49.8375 91.2894 50.5676 90.7491C51.2978 90.2088 51.8346 89.4478 52.0986 88.5787L52.8684 86.0817C52.9097 85.9476 52.924 85.8066 52.9103 85.6669C52.8967 85.5273 52.8554 85.3917 52.7889 85.2682C52.7224 85.1446 52.632 85.0355 52.5229 84.9472C52.4139 84.8588 52.2884 84.7931 52.1537 84.7537C49.3541 83.9331 46.4284 82.2702 44.4671 81.0187C43.3575 80.3111 42.5244 79.244 42.1073 77.9957C40.9206 74.4164 40.1249 69.2745 39.7562 66.5281C39.6957 66.0754 39.5271 65.6438 39.2646 65.27C39.0021 64.8962 38.6535 64.591 38.2481 64.3804C37.8428 64.1698 37.3928 64.0598 36.936 64.0598C36.4792 64.0599 36.0291 64.1699 35.6239 64.3806L34.7466 64.8369C34.5502 64.4102 34.2611 64.0326 33.9003 63.7318C33.5396 63.4309 33.1163 63.2142 32.6612 63.0976C32.2061 62.9809 31.7308 62.9672 31.2698 63.0575C30.8088 63.1477 30.3737 63.3397 29.9962 63.6193L26.3001 66.3635C25.7888 66.7433 25.3797 67.2441 25.1094 67.8208C24.8391 68.3976 24.7161 69.0324 24.7513 69.6684C24.817 70.9066 24.9319 71.9914 25.0091 72.6331L23.8526 73.5439C23.3522 73.9358 22.9572 74.446 22.703 75.0285C22.4489 75.6111 22.3436 76.2477 22.3968 76.8811C22.7542 80.9213 23.9868 84.8353 26.0089 88.3513C26.3115 88.8725 26.4133 89.4862 26.2951 90.0772L25.3578 94.799L24.7137 94.6666C24.4407 94.61 24.1564 94.6633 23.9225 94.815C23.6886 94.9667 23.524 95.2046 23.4643 95.4769L21.6807 103.618C21.6259 103.869 21.6639 104.131 21.7878 104.356C21.9118 104.581 22.1131 104.753 22.3544 104.84ZM24.5078 76.7042C24.4843 76.42 24.5319 76.1344 24.6462 75.8731C24.7605 75.6118 24.938 75.383 25.1627 75.2073L25.3525 75.0588C25.6956 77.0354 26.2818 78.962 27.0977 80.7947C27.1563 80.9208 27.2392 81.0341 27.3417 81.1281C27.4441 81.2222 27.564 81.2951 27.6946 81.3428C27.8253 81.3905 27.964 81.412 28.1029 81.4061C28.2418 81.4001 28.3782 81.3669 28.5043 81.3083C28.6304 81.2496 28.7437 81.1667 28.8377 81.0643C28.9318 80.9619 29.0047 80.8419 29.0524 80.7113C29.1001 80.5807 29.1216 80.4419 29.1157 80.303C29.1097 80.1641 29.0765 80.0277 29.0179 79.9016C27.5495 76.7447 27.194 73.0341 27.1914 72.997C27.1914 72.9907 27.1885 72.9846 27.1877 72.9782C27.1877 72.9661 27.1877 72.9541 27.185 72.942C27.1824 72.9298 26.9643 71.4009 26.8674 69.5574C26.851 69.2703 26.906 68.9837 27.0276 68.7231C27.1492 68.4625 27.3335 68.2361 27.5641 68.0642L28.5644 67.3215C28.7216 69.9132 29.2174 74.4577 30.7811 78.0632C30.8928 78.3209 31.1023 78.5236 31.3635 78.6268C31.6247 78.73 31.9162 78.7252 32.1738 78.6134C32.4315 78.5017 32.6342 78.2922 32.7374 78.031C32.8405 77.7698 32.8357 77.4783 32.724 77.2207C30.9581 73.1487 30.667 67.5211 30.6191 65.796L31.2602 65.3195C31.407 65.2105 31.5801 65.1423 31.7618 65.1219C31.9435 65.1015 32.1273 65.1296 32.2947 65.2033C32.462 65.277 32.6068 65.3937 32.7144 65.5416C32.822 65.6895 32.8885 65.8632 32.9072 66.0451L32.9551 66.5117C32.9792 66.7968 33.4128 71.8059 34.5489 76.0769C34.5837 76.2123 34.6449 76.3394 34.7291 76.451C34.8133 76.5626 34.9188 76.6565 35.0394 76.7271C35.1601 76.7977 35.2935 76.8438 35.432 76.8626C35.5705 76.8814 35.7114 76.8725 35.8465 76.8366C35.9816 76.8007 36.1083 76.7384 36.2191 76.6532C36.33 76.5681 36.423 76.4619 36.4926 76.3406C36.5622 76.2194 36.6071 76.0856 36.6248 75.9469C36.6424 75.8082 36.6324 75.6674 36.5953 75.5326C35.7411 72.3212 35.2914 68.5539 35.1326 67.0247L36.6027 66.2597C36.7065 66.2059 36.8216 66.1779 36.9384 66.178C37.0553 66.1781 37.1704 66.2064 37.274 66.2604C37.3776 66.3144 37.4667 66.3926 37.5337 66.4883C37.6007 66.584 37.6436 66.6945 37.6589 66.8103C38.1214 70.2547 38.9202 75.107 40.099 78.6628C40.6693 80.3724 41.8093 81.8345 43.3284 82.8044C45.1731 83.9818 47.8355 85.5068 50.5371 86.4573L50.0749 87.9561C49.9427 88.3922 49.6736 88.7741 49.3074 89.0454C48.9412 89.3167 48.4974 89.4628 48.0417 89.4623C46.4209 89.4731 44.8005 89.402 43.1868 89.2492C42.9351 89.2227 42.6823 89.2871 42.474 89.4307C42.2657 89.5744 42.1156 89.7878 42.0509 90.0324L39.9957 97.8386L27.4307 95.2294L28.3717 90.4896C28.5906 89.3927 28.4011 88.2536 27.8389 87.2866C25.9738 84.0427 24.8371 80.4316 24.5078 76.7042ZM25.3083 96.9519L41.7886 100.372L40.3385 106.37C37.5999 106.033 29.3797 104.923 23.9511 103.15L25.3083 96.9519Z" fill="#0E3594"/>
<path d="M105.526 23.6971L97.2378 24.5776C96.9606 24.607 96.7062 24.7446 96.5298 24.9605C96.3535 25.1764 96.2693 25.4531 96.2957 25.7306L96.3579 26.3855L91.5615 26.8C90.9611 26.8534 90.362 26.685 89.8774 26.3267C86.6038 23.9325 82.8483 22.2794 78.8717 21.4824C78.2481 21.3601 77.6038 21.3949 76.997 21.5834C76.3901 21.772 75.8396 22.1085 75.3951 22.5626L74.3627 23.6124C73.7332 23.4655 72.6686 23.2323 71.4441 23.0301C70.8158 22.9258 70.1715 22.9789 69.5689 23.1846C68.9662 23.3903 68.4239 23.7422 67.9904 24.2088L64.4884 27.9782C64.1766 28.3143 63.9506 28.7206 63.8296 29.1628C63.7085 29.6049 63.696 30.0697 63.7931 30.5177C63.8903 30.9657 64.0941 31.3836 64.3874 31.7359C64.6807 32.0882 65.0547 32.3645 65.4776 32.5412L65.2412 32.8949C64.9603 33.3145 64.7842 33.7954 64.728 34.2972C64.6717 34.799 64.7369 35.307 64.918 35.7784C65.0991 36.2497 65.3908 36.6707 65.7685 37.0058C66.1463 37.3408 66.599 37.5802 67.0886 37.7038C70.2468 38.4995 74.6727 39.751 77.8211 41.1945C79.016 41.7458 79.9855 42.6906 80.5674 43.8709C81.5966 45.9581 82.9299 49.0486 83.4379 51.9206C83.4623 52.0588 83.514 52.1908 83.5899 52.3088C83.6657 52.4268 83.7643 52.5286 83.8799 52.6082C83.9955 52.6878 84.1257 52.7437 84.263 52.7725C84.4004 52.8013 84.5421 52.8026 84.6799 52.7761L87.2457 52.2846C88.1385 52.1173 88.9538 51.6671 89.5708 51.0005C90.1879 50.3338 90.5739 49.4863 90.6718 48.5832C90.7949 47.4773 90.9389 45.9361 90.9878 44.4191L97.9761 43.3796L98.0933 44.6176C98.1182 44.8798 98.2399 45.1232 98.4346 45.3005C98.6293 45.4778 98.883 45.5761 99.1463 45.5764C99.1913 45.5764 99.2362 45.5735 99.2808 45.5679L107.418 44.525C107.673 44.4923 107.908 44.3679 108.078 44.1749C108.248 43.9818 108.342 43.7335 108.342 43.4762C108.342 42.9865 108.34 31.4009 106.666 24.5005C106.605 24.2514 106.456 24.0327 106.247 23.885C106.037 23.7373 105.781 23.6706 105.526 23.6971ZM89.7903 42.4563C89.5399 42.4935 89.3111 42.6192 89.1454 42.8106C88.9798 43.002 88.8881 43.2464 88.8871 43.4995C88.8621 45.1203 88.7553 46.7387 88.5671 48.3487C88.5177 48.8018 88.3237 49.227 88.0138 49.5613C87.7039 49.8956 87.2946 50.1212 86.8465 50.2048L85.3062 50.4999C84.6582 47.711 83.4339 44.8972 82.4656 42.9344C81.6682 41.3183 80.3402 40.025 78.7036 39.2706C75.4091 37.7591 70.8493 36.4676 67.6058 35.6502C67.4453 35.6094 67.2969 35.5307 67.1731 35.4206C67.0493 35.3105 66.9538 35.1723 66.8946 35.0176C66.8354 34.8629 66.8142 34.6963 66.8328 34.5317C66.8514 34.3671 66.9092 34.2093 67.0015 34.0718L67.6794 33.0579C69.1811 33.3833 72.8735 34.242 75.9758 35.444C76.237 35.5425 76.5265 35.5338 76.7813 35.4199C77.0362 35.3061 77.2358 35.0962 77.3366 34.8359C77.4375 34.5756 77.4315 34.2861 77.32 34.0302C77.2085 33.7743 77.0004 33.5728 76.7411 33.4696C72.6143 31.8705 67.6757 30.8905 67.4065 30.8376L66.4199 30.6258C66.2944 30.5988 66.1783 30.539 66.0833 30.4526C65.9884 30.3661 65.918 30.256 65.8795 30.1335C65.8409 30.011 65.8355 29.8805 65.8637 29.7552C65.892 29.63 65.9529 29.5144 66.0404 29.4204L66.9525 28.4378C68.6609 28.6736 74.2166 29.576 78.0776 31.7818C78.3215 31.9211 78.6106 31.9578 78.8816 31.8838C79.1525 31.8099 79.3829 31.6314 79.5222 31.3875C79.6615 31.1437 79.6982 30.8545 79.6243 30.5835C79.5503 30.3126 79.3718 30.0822 79.1279 29.9429C75.7151 27.9936 71.2524 27.0031 68.6935 26.5631L69.5406 25.6499C69.7366 25.4395 69.9817 25.281 70.254 25.1886C70.5262 25.0962 70.8172 25.0728 71.1007 25.1205C72.9227 25.4193 74.4151 25.8037 74.4302 25.8087C74.4453 25.8137 74.454 25.8129 74.4659 25.8156C74.4726 25.8156 74.4784 25.8201 74.485 25.8214C74.5213 25.8288 78.1589 26.5816 81.1471 28.3936C81.3873 28.5392 81.6754 28.5834 81.9482 28.5166C82.0832 28.4835 82.2104 28.4241 82.3225 28.3418C82.4346 28.2596 82.5295 28.156 82.6015 28.0371C82.6736 27.9182 82.7216 27.7863 82.7427 27.6488C82.7638 27.5114 82.7577 27.3712 82.7246 27.2361C82.6915 27.101 82.6321 26.9738 82.5498 26.8617C82.4676 26.7496 82.364 26.6548 82.2451 26.5827C80.5128 25.571 78.6619 24.7773 76.7347 24.2199L76.9042 24.0476C77.1035 23.8436 77.3503 23.6923 77.6225 23.6073C77.8948 23.5223 78.1838 23.5062 78.4638 23.5606C82.1326 24.2963 85.5972 25.8216 88.6174 28.0306C89.5171 28.6952 90.6285 29.0082 91.7428 28.9111L96.5575 28.4949L97.7733 41.2699L89.7903 42.4563ZM100.098 43.3283L98.5031 26.5724L104.811 25.9029C105.978 31.4906 106.181 39.7849 106.217 42.5442L100.098 43.3283Z" fill="#0E3594"/>
<path d="M66.3049 45.6468C62.5809 45.7 58.9771 46.9732 56.0462 49.2711C53.1152 51.5691 51.0189 54.765 50.0787 58.3687C49.1384 61.9725 49.4062 65.7852 50.8408 69.2221C52.2755 72.6591 54.7979 75.5307 58.0212 77.3964C58.1624 77.4802 58.2793 77.5994 58.3601 77.7423C58.441 77.8852 58.483 78.0468 58.4821 78.2109V85.4557C58.4843 87.3311 59.2303 89.1291 60.5565 90.4552C61.8826 91.7813 63.6806 92.5272 65.5561 92.5294H67.5392C69.4147 92.5273 71.2128 91.7813 72.539 90.4552C73.8652 89.129 74.6111 87.3309 74.6132 85.4554V81.8634C74.6132 81.5825 74.5017 81.3132 74.3031 81.1147C74.1046 80.9161 73.8352 80.8045 73.5544 80.8045H69.9401V77.7286C69.9395 77.2848 70.0444 76.8473 70.2463 76.4521C70.4483 76.0568 70.7414 75.7154 71.1014 75.4559C72.8826 74.1819 75.986 71.4763 76.7595 67.6471C76.7807 67.5287 77.2672 64.7207 76.1578 62.1361C75.811 61.3281 75.2887 60.6074 74.6288 60.0263C73.9688 59.4452 73.1878 59.0182 72.3423 58.7765C71.5083 58.5296 70.6298 58.4714 69.7705 58.6063C68.9113 58.7412 68.0928 59.0657 67.3746 59.5563C67.26 59.635 67.162 59.7356 67.0862 59.8522C67.0104 59.9687 66.9583 60.0991 66.933 60.2358C66.9076 60.3726 66.9094 60.5129 66.9382 60.649C66.9671 60.785 67.0224 60.914 67.1012 61.0286C67.1799 61.1432 67.2804 61.2412 67.397 61.317C67.5136 61.3928 67.644 61.4449 67.7807 61.4703C67.9174 61.4956 68.0578 61.4939 68.1938 61.465C68.3298 61.4361 68.4588 61.3808 68.5735 61.3021C69.0338 60.9893 69.558 60.7829 70.108 60.6979C70.658 60.6129 71.2201 60.6513 71.7534 60.8105C72.2978 60.9656 72.8009 61.24 73.2261 61.6137C73.6514 61.9875 73.988 62.4512 74.2117 62.9713C75.0648 64.9584 74.6794 67.25 74.6794 67.25C74.0542 70.3441 71.3971 72.6391 69.8697 73.7321C69.2359 74.1878 68.7196 74.7878 68.3636 75.4825C68.0076 76.1772 67.8221 76.9467 67.8225 77.7273V80.8032H65.4891V77.7273C65.4895 76.9467 65.304 76.1772 64.948 75.4825C64.592 74.7877 64.0757 74.1877 63.4419 73.7321C62.0471 72.759 60.837 71.5451 59.8683 70.1472C59.7926 70.0293 59.6941 69.9277 59.5788 69.8481C59.4634 69.7686 59.3334 69.7127 59.1963 69.6838C59.0592 69.6549 58.9177 69.6534 58.7801 69.6796C58.6424 69.7057 58.5113 69.7589 58.3944 69.8361C58.2774 69.9133 58.177 70.013 58.0988 70.1293C58.0207 70.2456 57.9664 70.3763 57.9391 70.5137C57.9118 70.6512 57.9121 70.7926 57.9399 70.93C57.9678 71.0673 58.0225 71.1978 58.1012 71.3138C59.2128 72.9285 60.6044 74.3313 62.2102 75.4559C62.5702 75.7154 62.8633 76.0568 63.0652 76.4521C63.2672 76.8473 63.3721 77.2848 63.3715 77.7286V80.8045H60.5997V78.2104C60.6002 77.6752 60.4605 77.1493 60.1945 76.6848C59.9286 76.2204 59.5456 75.8338 59.0837 75.5634C56.7598 74.2173 54.8425 72.2687 53.5342 69.9232C52.226 67.5778 51.5754 64.9226 51.6511 62.2381C51.8705 54.3665 58.4572 47.873 66.3343 47.7629C68.3091 47.7346 70.2698 48.0991 72.1025 48.8353C73.9352 49.5715 75.6033 50.6646 77.0098 52.051C78.4163 53.4375 79.5332 55.0898 80.2956 56.9117C81.0579 58.7337 81.4506 60.689 81.4506 62.664C81.4451 65.279 80.7541 67.847 79.4465 70.1117C78.139 72.3764 76.2606 74.2587 73.9986 75.571C73.5392 75.8414 73.1587 76.2274 72.895 76.6906C72.6314 77.1539 72.4937 77.6782 72.4959 78.2112C72.4959 78.492 72.6074 78.7613 72.806 78.9599C73.0046 79.1585 73.2739 79.27 73.5547 79.27C73.8355 79.27 74.1048 79.1585 74.3034 78.9599C74.502 78.7613 74.6135 78.492 74.6135 78.2112C74.6111 78.0497 74.6509 77.8904 74.7291 77.7491C74.8072 77.6077 74.921 77.4893 75.059 77.4054C77.6419 75.9066 79.7868 73.7568 81.2798 71.1705C82.7728 68.5841 83.5618 65.6516 83.568 62.6653C83.5679 60.4097 83.1196 58.1767 82.2489 56.0959C81.3783 54.0151 80.1028 52.1282 78.4965 50.5447C76.8902 48.9612 74.9852 47.7127 72.8922 46.8719C70.7992 46.0311 68.56 45.6147 66.3047 45.6468H66.3049ZM60.5997 82.9222H72.4959V85.4557C72.4943 86.7697 71.9716 88.0294 71.0425 88.9586C70.1133 89.8877 68.8535 90.4103 67.5395 90.4118H65.5561C64.242 90.4103 62.9822 89.8876 62.0529 88.9585C61.1237 88.0293 60.601 86.7695 60.5995 85.4554L60.5997 82.9222Z" fill="#FF6700"/>
<path d="M37.409 102.247C37.3409 102.26 37.2743 102.28 37.2104 102.307C37.1469 102.334 37.0857 102.366 37.0275 102.403C36.9703 102.442 36.9164 102.487 36.8663 102.535C36.668 102.734 36.5566 103.003 36.5566 103.284C36.5566 103.565 36.668 103.834 36.8663 104.033C36.9164 104.082 36.9703 104.126 37.0275 104.166C37.0857 104.203 37.1469 104.234 37.2104 104.261C37.2743 104.288 37.3409 104.308 37.409 104.322C37.4769 104.335 37.5461 104.342 37.6154 104.343C37.7636 104.344 37.9102 104.313 38.0458 104.253C38.1814 104.194 38.303 104.106 38.4027 103.997C38.5024 103.887 38.5781 103.758 38.6247 103.617C38.6713 103.477 38.6879 103.328 38.6733 103.18C38.6588 103.033 38.6135 102.89 38.5404 102.761C38.4672 102.633 38.3678 102.52 38.2487 102.432C38.1295 102.344 37.9932 102.282 37.8485 102.25C37.7039 102.218 37.5541 102.217 37.409 102.247Z" fill="#0E3594"/>
<path d="M104.429 39.093C104.401 39.0294 104.369 38.9683 104.331 38.9103C104.291 38.853 104.247 38.799 104.199 38.7489C104.15 38.7 104.095 38.6565 104.037 38.6191C103.98 38.5798 103.919 38.547 103.854 38.5212C103.791 38.4942 103.724 38.4738 103.656 38.4603C103.451 38.4171 103.237 38.4369 103.044 38.5172C102.85 38.5976 102.685 38.7346 102.571 38.9103C102.532 38.9677 102.499 39.0289 102.473 39.093C102.446 39.157 102.426 39.2235 102.412 39.2915C102.398 39.3595 102.391 39.4286 102.391 39.498C102.391 39.5673 102.398 39.6365 102.412 39.7044C102.425 39.7726 102.446 39.8391 102.473 39.903C102.499 39.967 102.532 40.0282 102.571 40.0856C102.666 40.2317 102.796 40.3515 102.95 40.4339C103.103 40.5162 103.275 40.5585 103.449 40.5568C103.519 40.5578 103.588 40.5506 103.656 40.5356C103.724 40.5231 103.79 40.5036 103.854 40.4774C103.918 40.4506 103.979 40.4178 104.037 40.3794C104.095 40.3403 104.149 40.296 104.199 40.2471C104.297 40.1488 104.375 40.032 104.428 39.9035C104.481 39.7749 104.509 39.6371 104.508 39.498C104.509 39.4287 104.502 39.3596 104.49 39.2915C104.475 39.2238 104.454 39.1574 104.429 39.093Z" fill="#0E3594"/>
<path d="M61.9069 69.0765C62.1224 69.5432 62.4676 69.9382 62.9014 70.2141C63.3352 70.4901 63.8392 70.6355 64.3533 70.6329C64.4028 70.6329 64.4525 70.6329 64.5026 70.6287C65.0363 70.6038 65.5501 70.4187 65.9769 70.0973C66.4038 69.776 66.7238 69.3334 66.8953 68.8274L66.9201 68.7525C67.2228 67.81 67.3207 66.8138 67.2074 65.8305C67.094 64.8471 66.772 63.8993 66.2629 63.0504C64.4819 60.0511 61.595 60.3631 61.063 60.4492C57.4916 60.761 56.3435 63.9777 56.4478 66.6483C56.4588 66.9289 56.5808 67.1937 56.7869 67.3844C56.9931 67.575 57.2666 67.676 57.5472 67.6651C57.8278 67.6541 58.0925 67.5321 58.2832 67.326C58.4739 67.1198 58.5748 66.8463 58.5639 66.5657C58.5194 65.4275 58.6963 62.7601 61.2808 62.556C61.3253 62.5525 61.3695 62.5462 61.4132 62.5372C61.8207 62.4778 62.2365 62.5112 62.6293 62.6351C61.1572 64.6326 60.8968 66.8911 61.9069 69.0765ZM64.3099 63.9232C64.3545 63.9897 64.3986 64.0592 64.4422 64.1318C64.7977 64.7222 65.0229 65.3817 65.1028 66.0662C65.1827 66.7507 65.1154 67.4444 64.9055 68.1008L64.8901 68.1474C64.8549 68.2528 64.7879 68.3447 64.6983 68.4104C64.6087 68.4761 64.5009 68.5124 64.3898 68.5142C64.274 68.5246 64.1578 68.4987 64.0574 68.4401C63.9569 68.3816 63.8772 68.2932 63.8292 68.1873C63.1505 66.7206 63.313 65.2891 64.3099 63.9226V63.9232Z" fill="#FF6700"/>
</svg>
