<svg width="130" height="130" viewBox="0 0 130 130" fill="none" xmlns="http://www.w3.org/2000/svg">
<path d="M36.2266 42.2273H92.272" stroke="#0E3594" stroke-width="2.04545" stroke-miterlimit="10" stroke-linecap="round" stroke-linejoin="round"/>
<path d="M36.2266 84.6364V25.1818C36.2266 23.6818 37.4538 22.4545 38.9538 22.4545H89.5447C91.0447 22.4545 92.272 23.6818 92.272 25.1818V83" stroke="#0E3594" stroke-width="2.04545" stroke-miterlimit="10" stroke-linecap="round" stroke-linejoin="round"/>
<path d="M77.9554 97.3182H58.5918" stroke="#0E3594" stroke-width="2.04545" stroke-miterlimit="10" stroke-linecap="round" stroke-linejoin="round"/>
<path d="M51.8477 32.3758L46.93 37.2934L42.0124 32.3758L46.93 27.4582L51.8477 32.3758Z" stroke="#FF6700" stroke-width="2.04515" stroke-miterlimit="10" stroke-linecap="round" stroke-linejoin="round"/>
<path d="M59.2734 27.6364H86.4098" stroke="#FF6700" stroke-width="2.04545" stroke-miterlimit="10" stroke-linecap="round" stroke-linejoin="round"/>
<path d="M59.2734 37.0455H79.3189" stroke="#FF6700" stroke-width="2.04545" stroke-miterlimit="10" stroke-linecap="round" stroke-linejoin="round"/>
<path d="M59.2734 32.2727H82.8643" stroke="#FF6700" stroke-width="2.04545" stroke-miterlimit="10" stroke-linecap="round" stroke-linejoin="round"/>
<path d="M58.0456 107.682H22.8638C22.5911 107.682 22.3184 107.409 22.3184 107.136V85.3182C22.3184 85.0455 22.5911 84.7727 22.8638 84.7727H57.9093C58.182 84.7727 58.4547 85.0455 58.4547 85.3182V107.136C58.5911 107.409 58.3184 107.682 58.0456 107.682Z" stroke="#FF6700" stroke-width="2.04545" stroke-miterlimit="10" stroke-linecap="round" stroke-linejoin="round"/>
<path d="M23 85.0455L40.4545 97.8636L57.9091 85.0455" stroke="#FF6700" stroke-width="2.04545" stroke-miterlimit="10" stroke-linecap="round" stroke-linejoin="round"/>
<path d="M107.683 107.682H67.5918L107.683 67.5909V107.682Z" stroke="#0E3594" stroke-width="2.04545" stroke-miterlimit="10" stroke-linecap="round" stroke-linejoin="round"/>
<path d="M85.0449 100.455L100.454 85.0455V100.455H85.0449Z" stroke="#0E3594" stroke-width="2.04545" stroke-miterlimit="10" stroke-linecap="round" stroke-linejoin="round"/>
<path d="M74.2734 107.682V105.091" stroke="#0E3594" stroke-width="2.04545" stroke-miterlimit="10" stroke-linecap="round" stroke-linejoin="round"/>
<path d="M80.9551 107.682V105.091" stroke="#0E3594" stroke-width="2.04545" stroke-miterlimit="10" stroke-linecap="round" stroke-linejoin="round"/>
<path d="M87.6367 107.682V105.091" stroke="#0E3594" stroke-width="2.04545" stroke-miterlimit="10" stroke-linecap="round" stroke-linejoin="round"/>
<path d="M94.3184 107.682V105.091" stroke="#0E3594" stroke-width="2.04545" stroke-miterlimit="10" stroke-linecap="round" stroke-linejoin="round"/>
<path d="M101 107.682V105.091" stroke="#0E3594" stroke-width="2.04545" stroke-miterlimit="10" stroke-linecap="round" stroke-linejoin="round"/>
<path d="M31.3184 64.3182V68.8182C31.3184 71.1364 29.2729 72.9091 26.8184 72.9091C24.3638 72.9091 22.3184 71 22.3184 68.8182V64.3182" stroke="#0E3594" stroke-width="2.04545" stroke-miterlimit="10" stroke-linecap="round" stroke-linejoin="round"/>
<path d="M22.4551 37.7273H31.3187V64.3182H22.4551V37.7273Z" stroke="#0E3594" stroke-width="2.04545" stroke-miterlimit="10" stroke-linecap="round" stroke-linejoin="round"/>
<path d="M22.4551 37.7273L26.8187 27.7727L31.3187 37.7273" stroke="#0E3594" stroke-width="2.04545" stroke-miterlimit="10" stroke-linecap="round" stroke-linejoin="round"/>
<path d="M106.318 63.5H98.682C97.8638 63.5 97.3184 62.9545 97.3184 62.1364V23.6818C97.3184 22.8636 97.8638 22.3182 98.682 22.3182H106.318C107.137 22.3182 107.682 22.8636 107.682 23.6818V62C107.682 62.8182 107 63.5 106.318 63.5Z" stroke="#0E3594" stroke-width="2.04545" stroke-miterlimit="10" stroke-linecap="round" stroke-linejoin="round"/>
<path d="M97.3184 59.4091H99.6365" stroke="#0E3594" stroke-width="2.04545" stroke-miterlimit="10" stroke-linecap="round" stroke-linejoin="round"/>
<path d="M97.3184 55.1818H99.6365" stroke="#0E3594" stroke-width="2.04545" stroke-miterlimit="10" stroke-linecap="round" stroke-linejoin="round"/>
<path d="M97.3184 51.0909H99.6365" stroke="#0E3594" stroke-width="2.04545" stroke-miterlimit="10" stroke-linecap="round" stroke-linejoin="round"/>
<path d="M97.3184 47H99.6365" stroke="#0E3594" stroke-width="2.04545" stroke-miterlimit="10" stroke-linecap="round" stroke-linejoin="round"/>
<path d="M97.3184 42.9091H99.6365" stroke="#0E3594" stroke-width="2.04545" stroke-miterlimit="10" stroke-linecap="round" stroke-linejoin="round"/>
<path d="M97.3184 38.8182H99.6365" stroke="#0E3594" stroke-width="2.04545" stroke-miterlimit="10" stroke-linecap="round" stroke-linejoin="round"/>
<path d="M97.3184 34.7273H99.6365" stroke="#0E3594" stroke-width="2.04545" stroke-miterlimit="10" stroke-linecap="round" stroke-linejoin="round"/>
<path d="M97.3184 30.6364H99.6365" stroke="#0E3594" stroke-width="2.04545" stroke-miterlimit="10" stroke-linecap="round" stroke-linejoin="round"/>
<path d="M97.3184 26.5455H99.6365" stroke="#0E3594" stroke-width="2.04545" stroke-miterlimit="10" stroke-linecap="round" stroke-linejoin="round"/>
<path d="M59.2725 74.8182C53.6816 74.8182 49.1816 70.3182 49.1816 64.7273C49.1816 59.1364 53.6816 54.6364 59.2725 54.6364C64.8635 54.6364 69.3635 59.1364 69.3635 64.7273" stroke="#FF6700" stroke-width="2.04545" stroke-miterlimit="10" stroke-linecap="round" stroke-linejoin="round"/>
<path d="M69.3643 84.9091C74.9374 84.9091 79.4553 80.3912 79.4553 74.8182C79.4553 69.2451 74.9374 64.7273 69.3643 64.7273C63.7913 64.7273 59.2734 69.2451 59.2734 74.8182C59.2734 80.3912 63.7913 84.9091 69.3643 84.9091Z" stroke="#FF6700" stroke-width="2.04545" stroke-miterlimit="10" stroke-linecap="round" stroke-linejoin="round"/>
<path d="M47 27.3636V37.1818" stroke="#FF6700" stroke-width="2.04545" stroke-miterlimit="10" stroke-linecap="round" stroke-linejoin="round"/>
</svg>
