<svg width="130" height="130" viewBox="0 0 130 130" fill="none" xmlns="http://www.w3.org/2000/svg">
<path d="M52.4996 65C51.2996 66.6 43.9996 70.6667 40.4996 72.5L37.9996 75C37.4996 75.5 37.9996 76 37.9996 76.5C37.9996 77 38.4996 80 38.4996 80.5C38.4996 80.9 40.1662 83 40.9996 84L43.9996 86.5L49.4996 84.5L53.4996 82.5L64.4996 78L75.9996 73L73.4996 67L67.9996 58.5L65.4996 55C65.1662 55 64.3996 55.1 63.9996 55.5C63.4996 56 61.9996 57 60.9996 57.5C59.9996 58 53.9996 63 52.4996 65Z" fill="#FF6700"/>
<path d="M72.0312 95.9375H69.2188V82.1563C69.2188 81.7833 69.0706 81.4256 68.8069 81.1619C68.5431 80.8982 68.1855 80.75 67.8125 80.75C67.4395 80.75 67.0819 80.8982 66.8181 81.1619C66.5544 81.4256 66.4062 81.7833 66.4062 82.1563V95.9375H29.8438V67.8125H41.5437C41.9167 67.8125 42.2744 67.6643 42.5381 67.4006C42.8018 67.1369 42.95 66.7792 42.95 66.4062C42.95 66.0333 42.8018 65.6756 42.5381 65.4119C42.2744 65.1482 41.9167 65 41.5437 65H28.4375C28.0645 65 27.7069 65.1482 27.4431 65.4119C27.1794 65.6756 27.0312 66.0333 27.0312 66.4062V95.9375H24.2188C23.8458 95.9375 23.4881 96.0857 23.2244 96.3494C22.9607 96.6131 22.8125 96.9708 22.8125 97.3438V100.156C22.8125 102.021 23.5533 103.809 24.8719 105.128C26.1905 106.447 27.9789 107.188 29.8438 107.188H66.4062C68.2711 107.188 70.0595 106.447 71.3781 105.128C72.6967 103.809 73.4375 102.021 73.4375 100.156V97.3438C73.4375 96.9708 73.2893 96.6131 73.0256 96.3494C72.7619 96.0857 72.4042 95.9375 72.0312 95.9375ZM70.625 100.156C70.625 101.275 70.1805 102.348 69.3894 103.139C68.5982 103.931 67.5251 104.375 66.4062 104.375H63.5938V102.969C63.5938 102.596 63.4456 102.238 63.1819 101.974C62.9181 101.711 62.5605 101.562 62.1875 101.562C61.8145 101.562 61.4569 101.711 61.1931 101.974C60.9294 102.238 60.7812 102.596 60.7812 102.969V104.375H35.4688V102.969C35.4688 102.596 35.3206 102.238 35.0569 101.974C34.7931 101.711 34.4355 101.562 34.0625 101.562C33.6895 101.562 33.3319 101.711 33.0681 101.974C32.8044 102.238 32.6562 102.596 32.6562 102.969V104.375H29.8438C28.7249 104.375 27.6518 103.931 26.8606 103.139C26.0695 102.348 25.625 101.275 25.625 100.156V98.75H70.625V100.156Z" fill="#0E3594"/>
<path d="M95.9375 31.25H98.75C99.123 31.25 99.4806 31.1018 99.7444 30.8381C100.008 30.5744 100.156 30.2167 100.156 29.8438C100.156 29.4708 100.008 29.1131 99.7444 28.8494C99.4806 28.5857 99.123 28.4375 98.75 28.4375H95.9375C94.8186 28.4375 93.7456 28.882 92.9544 29.6731C92.1632 30.4643 91.7188 31.5374 91.7188 32.6562V34.0625H90.3125C89.9395 34.0625 89.5819 34.2107 89.3181 34.4744C89.0544 34.7381 88.9062 35.0958 88.9062 35.4688C88.9062 35.8417 89.0544 36.1994 89.3181 36.4631C89.5819 36.7268 89.9395 36.875 90.3125 36.875H91.7188V41.0938C91.7188 41.4667 91.8669 41.8244 92.1306 42.0881C92.3944 42.3518 92.752 42.5 93.125 42.5C93.498 42.5 93.8556 42.3518 94.1194 42.0881C94.3831 41.8244 94.5312 41.4667 94.5312 41.0938V36.875H95.9375C96.3105 36.875 96.6681 36.7268 96.9319 36.4631C97.1956 36.1994 97.3438 35.8417 97.3438 35.4688C97.3438 35.0958 97.1956 34.7381 96.9319 34.4744C96.6681 34.2107 96.3105 34.0625 95.9375 34.0625H94.5312V32.6562C94.5312 32.2833 94.6794 31.9256 94.9431 31.6619C95.2069 31.3982 95.5645 31.25 95.9375 31.25Z" fill="#FF6700"/>
<path d="M102.969 22.8125H86.0938C84.9749 22.8125 83.9018 23.257 83.1106 24.0481C82.3195 24.8393 81.875 25.9124 81.875 27.0312V29.8438C81.875 30.2167 82.0232 30.5744 82.2869 30.8381C82.5506 31.1018 82.9083 31.25 83.2812 31.25C83.6542 31.25 84.0119 31.1018 84.2756 30.8381C84.5393 30.5744 84.6875 30.2167 84.6875 29.8438V27.0312C84.6875 26.6583 84.8357 26.3006 85.0994 26.0369C85.3631 25.7732 85.7208 25.625 86.0938 25.625H102.969C103.342 25.625 103.699 25.7732 103.963 26.0369C104.227 26.3006 104.375 26.6583 104.375 27.0312V43.9062C104.375 44.2792 104.227 44.6369 103.963 44.9006C103.699 45.1643 103.342 45.3125 102.969 45.3125H86.0938C85.7208 45.3125 85.3631 45.1643 85.0994 44.9006C84.8357 44.6369 84.6875 44.2792 84.6875 43.9062V35.4688C84.6875 35.0958 84.5393 34.7381 84.2756 34.4744C84.0119 34.2107 83.6542 34.0625 83.2812 34.0625C82.9083 34.0625 82.5506 34.2107 82.2869 34.4744C82.0232 34.7381 81.875 35.0958 81.875 35.4688V43.9062C81.875 45.0251 82.3195 46.0982 83.1106 46.8894C83.9018 47.6805 84.9749 48.125 86.0938 48.125H102.969C104.088 48.125 105.161 47.6805 105.952 46.8894C106.743 46.0982 107.188 45.0251 107.188 43.9062V27.0312C107.188 25.9124 106.743 24.8393 105.952 24.0481C105.161 23.257 104.088 22.8125 102.969 22.8125Z" fill="#0E3594"/>
<path d="M88.9062 79.0625C88.9062 80.175 89.2362 81.2626 89.8542 82.1876C90.4723 83.1126 91.3508 83.8336 92.3787 84.2593C93.4065 84.6851 94.5375 84.7965 95.6286 84.5794C96.7198 84.3624 97.7221 83.8266 98.5087 83.04C99.2954 82.2533 99.8311 81.251 100.048 80.1599C100.265 79.0687 100.154 77.9377 99.7281 76.9099C99.3023 75.8821 98.5814 75.0036 97.6563 74.3855C96.7313 73.7674 95.6438 73.4375 94.5312 73.4375C93.0394 73.4375 91.6087 74.0301 90.5538 75.085C89.4989 76.1399 88.9062 77.5707 88.9062 79.0625ZM97.3438 79.0625C97.3438 79.6188 97.1788 80.1625 96.8698 80.625C96.5607 81.0876 96.1215 81.448 95.6075 81.6609C95.0936 81.8738 94.5281 81.9295 93.9826 81.821C93.437 81.7124 92.9358 81.4446 92.5425 81.0512C92.1492 80.6579 91.8813 80.1568 91.7728 79.6112C91.6643 79.0656 91.72 78.5001 91.9328 77.9862C92.1457 77.4723 92.5062 77.033 92.9687 76.724C93.4312 76.4149 93.975 76.25 94.5312 76.25C95.2772 76.25 95.9925 76.5463 96.52 77.0738C97.0474 77.6012 97.3438 78.3166 97.3438 79.0625Z" fill="#FF6700"/>
<path d="M102.969 66.4062H86.0938C84.9749 66.4062 83.9018 66.8507 83.1106 67.6419C82.3195 68.4331 81.875 69.5061 81.875 70.625V87.5C81.875 88.6189 82.3195 89.6919 83.1106 90.4831C83.9018 91.2743 84.9749 91.7188 86.0938 91.7188H102.969C104.088 91.7188 105.161 91.2743 105.952 90.4831C106.743 89.6919 107.188 88.6189 107.188 87.5V84.6875C107.188 84.3145 107.039 83.9569 106.776 83.6931C106.512 83.4294 106.154 83.2812 105.781 83.2812C105.408 83.2812 105.051 83.4294 104.787 83.6931C104.523 83.9569 104.375 84.3145 104.375 84.6875V87.5C104.375 87.873 104.227 88.2306 103.963 88.4944C103.699 88.7581 103.342 88.9062 102.969 88.9062H86.0938C85.7208 88.9062 85.3631 88.7581 85.0994 88.4944C84.8357 88.2306 84.6875 87.873 84.6875 87.5V70.625C84.6875 70.252 84.8357 69.8944 85.0994 69.6306C85.3631 69.3669 85.7208 69.2188 86.0938 69.2188H102.969C103.342 69.2188 103.699 69.3669 103.963 69.6306C104.227 69.8944 104.375 70.252 104.375 70.625V79.0625C104.375 79.4355 104.523 79.7931 104.787 80.0569C105.051 80.3206 105.408 80.4688 105.781 80.4688C106.154 80.4688 106.512 80.3206 106.776 80.0569C107.039 79.7931 107.188 79.4355 107.188 79.0625V70.625C107.188 69.5061 106.743 68.4331 105.952 67.6419C105.161 66.8507 104.088 66.4062 102.969 66.4062Z" fill="#0E3594"/>
<path d="M54.4109 39.4766C54.6347 39.6152 54.893 39.6883 55.1563 39.6875C55.3764 39.6862 55.5931 39.6332 55.7891 39.5328L64.2266 35.314C64.4569 35.196 64.6502 35.0167 64.7852 34.7959C64.9202 34.5751 64.9916 34.3213 64.9916 34.0625C64.9916 33.8037 64.9202 33.5499 64.7852 33.3291C64.6502 33.1082 64.4569 32.9289 64.2266 32.8109L55.7891 28.5922C55.575 28.4843 55.3369 28.4329 55.0974 28.443C54.8579 28.453 54.6249 28.5241 54.4206 28.6495C54.2163 28.7749 54.0475 28.9504 53.9301 29.1595C53.8127 29.3685 53.7507 29.604 53.75 29.8437V38.2812C53.7495 38.5202 53.81 38.7554 53.9256 38.9645C54.0412 39.1737 54.2083 39.3499 54.4109 39.4766ZM56.5625 32.1219L60.4438 34.0625L56.5625 36.0031V32.1219Z" fill="#FF6700"/>
<path d="M57.9688 46.7188C60.4719 46.7188 62.9189 45.9765 65.0002 44.5858C67.0815 43.1951 68.7037 41.2185 69.6616 38.9058C70.6195 36.5932 70.8702 34.0485 70.3818 31.5934C69.8935 29.1383 68.6881 26.8832 66.9181 25.1132C65.1481 23.3432 62.8929 22.1378 60.4379 21.6494C57.9828 21.1611 55.438 21.4117 53.1254 22.3697C50.8128 23.3276 48.8361 24.9498 47.4455 27.0311C46.0548 29.1124 45.3125 31.5593 45.3125 34.0625C45.3125 37.4192 46.6459 40.6383 49.0194 43.0118C51.3929 45.3853 54.6121 46.7188 57.9688 46.7188ZM57.9688 24.2188C59.9157 24.2188 61.8188 24.7961 63.4376 25.8777C65.0564 26.9594 66.3181 28.4968 67.0632 30.2955C67.8082 32.0942 68.0032 34.0734 67.6234 35.9829C67.2435 37.8924 66.306 39.6464 64.9293 41.0231C63.5527 42.3998 61.7987 43.3373 59.8892 43.7171C57.9797 44.0969 56.0004 43.902 54.2017 43.1569C52.403 42.4119 50.8656 41.1502 49.784 39.5314C48.7023 37.9126 48.125 36.0094 48.125 34.0625C48.125 31.4518 49.1621 28.948 51.0082 27.1019C52.8542 25.2559 55.358 24.2188 57.9688 24.2188Z" fill="#0E3594"/>
<path d="M72.0313 52.3438C72.2496 52.3438 72.4649 52.2929 72.6601 52.1953C72.8554 52.0977 73.0253 51.9559 73.1563 51.7813L77.375 46.1563C77.5988 45.8579 77.6949 45.4828 77.6421 45.1136C77.5894 44.7444 77.3921 44.4113 77.0938 44.1875C76.7954 43.9637 76.4203 43.8676 76.0511 43.9204C75.6819 43.9731 75.3488 44.1704 75.125 44.4688L70.9063 50.0938C70.6825 50.3921 70.5864 50.7672 70.6391 51.1364C70.6919 51.5056 70.8891 51.8387 71.1875 52.0625C71.4309 52.2451 71.727 52.3438 72.0313 52.3438Z" fill="#0E3594"/>
<path d="M75.125 57.4063C75.256 57.5809 75.4258 57.7227 75.6211 57.8203C75.8164 57.9179 76.0317 57.9688 76.25 57.9688C76.5543 57.9688 76.8503 57.8701 77.0938 57.6875L82.7188 53.4688C83.0171 53.245 83.2144 52.9118 83.2671 52.5426C83.3199 52.1734 83.2238 51.7984 83 51.5C82.7762 51.2016 82.4431 51.0044 82.0739 50.9516C81.7047 50.8989 81.3296 50.995 81.0313 51.2188L75.4063 55.4375C75.1079 55.6613 74.9106 55.9944 74.8579 56.3636C74.8051 56.7328 74.9012 57.1079 75.125 57.4063Z" fill="#0E3594"/>
<path d="M88.9055 60.5C88.872 60.3136 88.8013 60.1358 88.6975 59.9774C88.5937 59.8189 88.4589 59.6831 88.3013 59.5781C88.1437 59.473 87.9665 59.4009 87.7804 59.366C87.5942 59.3311 87.4029 59.3341 87.218 59.375L80.1867 60.7812C80.002 60.7997 79.8228 60.8544 79.6593 60.9421C79.4957 61.0298 79.351 61.1489 79.2335 61.2926C78.9962 61.5827 78.8838 61.9552 78.9211 62.3281C78.9584 62.7011 79.1423 63.0439 79.4324 63.2813C79.7225 63.5186 80.095 63.631 80.468 63.5937H80.7492L87.7805 62.1875C87.9669 62.1541 88.1447 62.0833 88.3031 61.9795C88.4615 61.8757 88.5973 61.741 88.7024 61.5834C88.8074 61.4258 88.8796 61.2486 88.9145 61.0624C88.9494 60.8762 88.9463 60.6849 88.9055 60.5Z" fill="#0E3594"/>
<path d="M24.2188 60.7812H41.0938C41.4667 60.7812 41.8244 60.6331 42.0881 60.3694C42.3518 60.1056 42.5 59.748 42.5 59.375V36.875C42.5 36.502 42.3518 36.1444 42.0881 35.8806C41.8244 35.6169 41.4667 35.4688 41.0938 35.4688H24.2188C23.8458 35.4688 23.4881 35.6169 23.2244 35.8806C22.9607 36.1444 22.8125 36.502 22.8125 36.875V59.375C22.8125 59.748 22.9607 60.1056 23.2244 60.3694C23.4881 60.6331 23.8458 60.7812 24.2188 60.7812ZM25.625 38.2812H39.6875V57.9688H25.625V38.2812Z" fill="#0E3594"/>
<path d="M35.4688 41.0938H32.6562C32.2833 41.0938 31.9256 41.2419 31.6619 41.5056C31.3982 41.7694 31.25 42.127 31.25 42.5C31.25 42.873 31.3982 43.2306 31.6619 43.4944C31.9256 43.7581 32.2833 43.9062 32.6562 43.9062H35.4688C35.8417 43.9062 36.1994 43.7581 36.4631 43.4944C36.7268 43.2306 36.875 42.873 36.875 42.5C36.875 42.127 36.7268 41.7694 36.4631 41.5056C36.1994 41.2419 35.8417 41.0938 35.4688 41.0938Z" fill="#FF6700"/>
<path d="M35.4688 46.7188H29.8438C29.4708 46.7188 29.1131 46.8669 28.8494 47.1306C28.5857 47.3944 28.4375 47.752 28.4375 48.125C28.4375 48.498 28.5857 48.8556 28.8494 49.1194C29.1131 49.3831 29.4708 49.5312 29.8438 49.5312H35.4688C35.8417 49.5312 36.1994 49.3831 36.4631 49.1194C36.7268 48.8556 36.875 48.498 36.875 48.125C36.875 47.752 36.7268 47.3944 36.4631 47.1306C36.1994 46.8669 35.8417 46.7188 35.4688 46.7188Z" fill="#FF6700"/>
<path d="M35.4688 52.3438H29.8438C29.4708 52.3438 29.1131 52.4919 28.8494 52.7556C28.5857 53.0194 28.4375 53.377 28.4375 53.75C28.4375 54.123 28.5857 54.4806 28.8494 54.7444C29.1131 55.0081 29.4708 55.1562 29.8438 55.1562H35.4688C35.8417 55.1562 36.1994 55.0081 36.4631 54.7444C36.7268 54.4806 36.875 54.123 36.875 53.75C36.875 53.377 36.7268 53.0194 36.4631 52.7556C36.1994 52.4919 35.8417 52.3438 35.4688 52.3438Z" fill="#FF6700"/>
<path d="M70.7929 60.3594C70.7005 60.1987 70.5775 60.0578 70.4307 59.9447C70.2839 59.8316 70.1163 59.7485 69.9374 59.7002C69.7585 59.6519 69.5718 59.6393 69.388 59.6631C69.2043 59.6869 69.027 59.7467 68.8663 59.8391C68.7056 59.9314 68.5647 60.0545 68.4516 60.2013C68.3385 60.348 68.2555 60.5157 68.2072 60.6946C68.1588 60.8735 68.1462 61.0601 68.1701 61.2439C68.1939 61.4277 68.2537 61.605 68.346 61.7656L74.5476 72.4953L52.0476 80.9328C52.0476 80.9328 52.0476 80.9328 51.9491 80.9328H51.8366L48.1804 83.0422L45.7476 84.4484C45.4273 84.6336 45.0736 84.7537 44.7068 84.802C44.34 84.8503 43.9673 84.8257 43.6101 84.7297C42.8923 84.5358 42.2805 84.0656 41.9085 83.4219L39.096 78.5562C38.7651 77.9197 38.69 77.1807 38.8861 76.4905C39.0821 75.8004 39.5345 75.2113 40.1507 74.8437L45.0163 72.0312L48.5319 78.1203C48.6558 78.3349 48.8342 78.513 49.0491 78.6364C49.2639 78.7599 49.5076 78.8244 49.7554 78.8234C50.0027 78.8244 50.2459 78.7602 50.4605 78.6371C50.675 78.5141 50.8533 78.3367 50.9774 78.1227C51.1015 77.9088 51.167 77.6659 51.1672 77.4186C51.1675 77.1713 51.1025 76.9282 50.9788 76.7141L47.3507 70.4422L64.9991 55.8875L65.5757 56.8859C65.668 57.0466 65.7911 57.1875 65.9379 57.3006C66.0847 57.4137 66.2523 57.4968 66.4312 57.5451C66.6101 57.5934 66.7968 57.606 66.9805 57.5822C67.1643 57.5584 67.3416 57.4986 67.5022 57.4062C67.6629 57.3139 67.8038 57.1908 67.9169 57.044C68.03 56.8972 68.1131 56.7296 68.1614 56.5507C68.2097 56.3718 68.2223 56.1852 68.1985 56.0014C68.1747 55.8176 68.1149 55.6403 68.0226 55.4797L66.6163 53.0469C66.5133 52.8707 66.3731 52.719 66.2055 52.6025C66.038 52.4859 65.847 52.4072 65.646 52.3719C65.4439 52.3338 65.2359 52.3405 65.0366 52.3915C64.8374 52.4425 64.6518 52.5366 64.4929 52.6672L44.8054 68.8953L38.8147 72.3547C37.7397 72.9809 36.9026 73.9458 36.4344 75.0985C35.9662 76.2511 35.8933 77.5265 36.2272 78.725L34.821 79.5266C34.0964 79.9426 33.5117 80.5645 33.141 81.3133C32.7704 82.0621 32.6304 82.9041 32.7388 83.7326C32.8473 84.5611 33.1993 85.3387 33.7502 85.9668C34.3012 86.595 35.0262 87.0454 35.8335 87.2609C36.1914 87.3557 36.5602 87.403 36.9304 87.4016C37.6702 87.3985 38.3967 87.2048 39.0397 86.8391L40.446 86.0375C41.1215 86.7353 41.9711 87.2402 42.9069 87.5C43.3875 87.6344 43.8845 87.7007 44.3835 87.6969C45.372 87.6992 46.343 87.437 47.196 86.9375L48.4194 86.2344L51.2319 91.1141C51.7909 92.0804 52.7101 92.7858 53.7881 93.0758C54.8662 93.3657 56.0152 93.2165 56.9835 92.6609C57.4639 92.3841 57.885 92.0154 58.2227 91.5758C58.5605 91.1361 58.8083 90.6342 58.952 90.0987C59.0956 89.5633 59.1323 89.0047 59.06 88.4551C58.9877 87.9054 58.8077 87.3754 58.5304 86.8953L55.971 82.4375L77.0648 74.5203C77.2561 74.4484 77.4294 74.3357 77.5727 74.1899C77.716 74.0442 77.8258 73.869 77.8944 73.6766C77.9629 73.4864 77.9895 73.2836 77.9725 73.0822C77.9555 72.8808 77.8953 72.6854 77.796 72.5094L70.7929 60.3594ZM37.5772 84.3922C37.4171 84.4848 37.2403 84.5448 37.0569 84.569C36.8735 84.5931 36.6871 84.5808 36.5085 84.5328C36.1482 84.4392 35.8397 84.2066 35.6507 83.8859C35.5581 83.7258 35.498 83.549 35.4739 83.3656C35.4498 83.1822 35.4621 82.9958 35.5101 82.8172C35.5581 82.6376 35.6412 82.4693 35.7546 82.3221C35.8681 82.1749 36.0096 82.0516 36.171 81.9594L37.3944 81.2562L38.8007 83.6891L37.5772 84.3922ZM56.0835 88.3297C56.1761 88.4898 56.2362 88.6667 56.2603 88.85C56.2844 89.0334 56.2721 89.2198 56.2241 89.3984C56.1238 89.7559 55.8862 90.0592 55.5632 90.2422C55.242 90.4267 54.861 90.477 54.5029 90.3822C54.1448 90.2874 53.8385 90.0552 53.6507 89.7359L50.8382 84.8562L53.1726 83.5203H53.2851L56.0835 88.3297Z" fill="#0E3594"/>
</svg>
