<svg width="130" height="130" viewBox="0 0 130 130" fill="none" xmlns="http://www.w3.org/2000/svg">
<path d="M68.2706 46.8636V107.273H41.6797V57.6363L43.7251 60.9091L49.8615 57.5L43.7251 46.8636H68.2706Z" stroke="#0E3594" stroke-width="2.72727" stroke-miterlimit="10" stroke-linecap="round" stroke-linejoin="round"/>
<path d="M42.7715 45.3636L51.3624 32.6818H77.9533L68.2715 46.8636H43.726" stroke="#0E3594" stroke-width="2.72727" stroke-miterlimit="10" stroke-linecap="round" stroke-linejoin="round"/>
<path d="M87.7715 93.2273V107.273H68.2715" stroke="#0E3594" stroke-width="2.72727" stroke-miterlimit="10" stroke-linecap="round" stroke-linejoin="round"/>
<path d="M77.9531 32.6818L87.7713 46.8636V78.6364" stroke="#0E3594" stroke-width="2.72727" stroke-miterlimit="10" stroke-linecap="round" stroke-linejoin="round"/>
<path d="M51.3633 32.5454V26.6818C51.3633 24.5 53.136 22.7273 55.3178 22.7273H73.8633C76.0451 22.7273 77.8178 24.5 77.8178 26.6818V32.5454" stroke="#0E3594" stroke-width="2.72727" stroke-miterlimit="10" stroke-linecap="round" stroke-linejoin="round"/>
<path d="M27.362 71.5455L25.7256 100.727C25.5893 103.182 27.4984 105.091 29.9529 105.091C32.4074 105.091 34.3165 103.045 34.1802 100.727L32.5438 71.8182" stroke="#0E3594" stroke-width="2.72727" stroke-miterlimit="10" stroke-linecap="round" stroke-linejoin="round"/>
<path d="M34.862 67.0455C34.862 64.1818 29.5438 55.0455 29.5438 55.0455C29.5438 55.0455 28.862 59.4091 25.7256 64.8637C23.4074 68.8182 27.362 73.7273 31.5892 71.9546C33.4983 71.1364 34.862 69.2273 34.862 67.0455Z" stroke="#FF6700" stroke-width="2.72727" stroke-miterlimit="10" stroke-linecap="round" stroke-linejoin="round"/>
<path d="M49.8629 57.3636L50.5447 65.8182L43.7266 60.9091" stroke="#0E3594" stroke-width="2.72727" stroke-miterlimit="10" stroke-linecap="round" stroke-linejoin="round"/>
<path d="M43.7272 60.9091L49.8635 57.3636L30.3635 23.6818C29.9544 23 29.1362 22.5909 28.4544 22.7273C26.8181 23 25.4544 23.8182 24.3635 25.0455C23.8181 25.7273 23.8181 26.5455 24.2272 27.2273L43.7272 60.9091Z" stroke="#0E3594" stroke-width="2.72727" stroke-miterlimit="10" stroke-linecap="round" stroke-linejoin="round"/>
<path d="M31.9996 26.5454L25.8633 30.0909" stroke="#0E3594" stroke-width="2.72727" stroke-miterlimit="10" stroke-linecap="round" stroke-linejoin="round"/>
<path d="M106.133 73.0577H94.4055V23.6941H106.133V73.0577Z" stroke="#0E3594" stroke-width="2.72727" stroke-miterlimit="10" stroke-linecap="round" stroke-linejoin="round"/>
<path d="M94.8652 68.2727H99.5016" stroke="#0E3594" stroke-width="2.72727" stroke-miterlimit="10" stroke-linecap="round" stroke-linejoin="round"/>
<path d="M94.8652 63.3636H98.0016" stroke="#0E3594" stroke-width="2.72727" stroke-miterlimit="10" stroke-linecap="round" stroke-linejoin="round"/>
<path d="M94.8652 58.3182H99.5016" stroke="#0E3594" stroke-width="2.72727" stroke-miterlimit="10" stroke-linecap="round" stroke-linejoin="round"/>
<path d="M94.8652 53.4091H98.0016" stroke="#0E3594" stroke-width="2.72727" stroke-miterlimit="10" stroke-linecap="round" stroke-linejoin="round"/>
<path d="M94.8652 48.3636H99.5016" stroke="#0E3594" stroke-width="2.72727" stroke-miterlimit="10" stroke-linecap="round" stroke-linejoin="round"/>
<path d="M94.8652 43.3182H98.0016" stroke="#0E3594" stroke-width="2.72727" stroke-miterlimit="10" stroke-linecap="round" stroke-linejoin="round"/>
<path d="M94.8652 38.4091H99.5016" stroke="#0E3594" stroke-width="2.72727" stroke-miterlimit="10" stroke-linecap="round" stroke-linejoin="round"/>
<path d="M94.8652 33.3636H98.0016" stroke="#0E3594" stroke-width="2.72727" stroke-miterlimit="10" stroke-linecap="round" stroke-linejoin="round"/>
<path d="M94.8652 28.4545H99.5016" stroke="#0E3594" stroke-width="2.72727" stroke-miterlimit="10" stroke-linecap="round" stroke-linejoin="round"/>
<path d="M50.5467 99.9091C50.8194 96.2273 46.7285 90.9091 46.7285 90.9091L55.0467 78.7727L63.2285 90.9091C63.2285 90.9091 59.1376 96.2273 59.4103 99.9091H50.5467Z" stroke="#FF6700" stroke-width="2.72727" stroke-miterlimit="10" stroke-linecap="round" stroke-linejoin="round"/>
<path d="M55.0469 78.7727V88.4546" stroke="#FF6700" stroke-width="2.72727" stroke-miterlimit="10" stroke-linecap="round" stroke-linejoin="round"/>
<path d="M45.7715 73.0455H64.1806" stroke="#FF6700" stroke-width="2.72727" stroke-miterlimit="10" stroke-linecap="round" stroke-linejoin="round"/>
<path d="M46.8633 81.0909C46.8633 76.5909 50.5451 73.0455 54.9087 73.0455C59.4087 73.0455 62.9542 76.7273 62.9542 81.0909" stroke="#FF6700" stroke-width="2.72727" stroke-miterlimit="10" stroke-linecap="round" stroke-linejoin="round"/>
<path d="M80.4375 85.9018L89.2107 77.1286L100.973 88.8905L92.1994 97.6637L80.4375 85.9018Z" stroke="#FF6700" stroke-width="2.72686" stroke-miterlimit="10" stroke-linecap="round" stroke-linejoin="round"/>
<path d="M89.002 85.5909L95.2747 79.3182C96.3656 78.2273 98.1383 78.2273 99.2292 79.3182C100.32 80.4091 100.32 82.1819 99.2292 83.2728L97.4565 85.0455" stroke="#FF6700" stroke-width="2.72727" stroke-miterlimit="10" stroke-linecap="round" stroke-linejoin="round"/>
<path d="M75.7734 96.3636C75.7734 94.7273 78.7734 91.7273 78.7734 91.7273C78.7734 91.7273 81.7734 94.7273 81.7734 96.3636C81.7734 98 80.4098 99.3636 78.7734 99.3636C77.1371 99.2273 75.7734 98 75.7734 96.3636Z" stroke="#FF6700" stroke-width="2.72727" stroke-miterlimit="10" stroke-linecap="round" stroke-linejoin="round"/>
</svg>
