<svg width="130" height="130" viewBox="0 0 130 130" fill="none" xmlns="http://www.w3.org/2000/svg">
<circle cx="78" cy="64" r="16" fill="#FF6700"/>
<path d="M105.566 30.6678H80.54L79.4284 24.2251C79.3788 23.9393 79.23 23.6802 79.0081 23.4934C78.7862 23.3066 78.5055 23.2042 78.2155 23.2041H51.7864C51.4963 23.204 51.2155 23.3064 50.9936 23.4932C50.7717 23.68 50.6229 23.9392 50.5735 24.2251L49.4619 30.6678H24.4355C24.1093 30.668 23.7964 30.7977 23.5657 31.0284C23.335 31.2591 23.2053 31.572 23.2051 31.8983V37.4994C23.2068 38.4508 23.5436 39.3712 24.1564 40.099C24.7693 40.8268 25.6189 41.3154 26.5562 41.4791V89.1812C26.5564 89.5074 26.6861 89.8203 26.9168 90.051C27.1475 90.2817 27.4604 90.4114 27.7866 90.4116H63.7705V98.2789C62.7675 98.5748 61.9048 99.2221 61.3402 100.102C60.7757 100.983 60.5473 102.037 60.6968 103.072C60.8462 104.107 61.3636 105.053 62.1541 105.738C62.9446 106.422 63.9553 106.799 65.0009 106.799C66.0466 106.799 67.0573 106.422 67.8478 105.738C68.6383 105.053 69.1556 104.107 69.3051 103.072C69.4546 102.037 69.2261 100.983 68.6616 100.102C68.0971 99.2221 67.2344 98.5748 66.2314 98.2789V90.4116H102.215C102.542 90.4114 102.854 90.2817 103.085 90.051C103.316 89.8203 103.446 89.5074 103.446 89.1812V41.4791C104.383 41.3154 105.233 40.8268 105.845 40.099C106.458 39.3712 106.795 38.4508 106.797 37.4994V31.8983C106.797 31.572 106.667 31.2591 106.436 31.0284C106.205 30.7977 105.893 30.668 105.566 30.6678ZM66.8888 102.447C66.889 102.82 66.7784 103.186 66.571 103.496C66.3636 103.807 66.0688 104.049 65.7239 104.192C65.3789 104.335 64.9993 104.372 64.6331 104.299C64.2668 104.227 63.9303 104.047 63.6662 103.783C63.4021 103.519 63.2223 103.183 63.1494 102.816C63.0765 102.45 63.1138 102.07 63.2567 101.725C63.3996 101.38 63.6415 101.086 63.952 100.878C64.2625 100.671 64.6275 100.56 65.0009 100.56C65.5013 100.56 65.9811 100.759 66.335 101.113C66.6889 101.467 66.8881 101.947 66.8888 102.447ZM52.8221 25.6651H77.1798L78.0446 30.6678H51.9587L52.8221 25.6651ZM29.0171 87.9507V41.5444H100.985V87.9507H29.0171ZM104.336 37.4994C104.335 37.9188 104.169 38.321 103.872 38.6176C103.575 38.9142 103.173 39.081 102.754 39.0814H27.248C26.8286 39.081 26.4264 38.9142 26.1298 38.6176C25.8332 38.321 25.6664 37.9188 25.666 37.4994V33.1287H104.336V37.4994Z" fill="#0E3594"/>
<path d="M77.7812 47.6447C74.4048 47.6429 71.1034 48.6412 68.2937 50.5135C65.484 52.3858 63.2918 55.0484 61.9936 58.1652C60.6954 61.2821 60.3494 64.7136 60.9993 68.0269C61.6492 71.3402 63.2658 74.3867 65.6452 76.7822C65.6614 76.7998 65.6733 76.8202 65.6902 76.8371C65.7071 76.854 65.7282 76.8666 65.7458 76.8828C67.7402 78.8607 70.1913 80.3169 72.8822 81.1224C75.5732 81.9279 78.4212 82.0581 81.1744 81.5013C83.9276 80.9446 86.5012 79.7181 88.6678 77.9302C90.8343 76.1424 92.527 73.8484 93.5962 71.2509C94.6655 68.6534 95.0782 65.8325 94.7981 63.0376C94.518 60.2426 93.5536 57.5597 91.9902 55.2261C90.4267 52.8925 88.3124 50.98 85.8342 49.6577C83.356 48.3354 80.5901 47.644 77.7812 47.6447ZM92.3597 63.5164H79.0116V50.1683C82.4531 50.4626 85.6799 51.9634 88.1223 54.4058C90.5646 56.8481 92.0655 60.0749 92.3597 63.5164ZM76.5507 50.1683V64.2371L66.605 74.1828C64.8689 72.1338 63.7309 69.6461 63.3159 66.9927C62.9009 64.3394 63.225 61.623 64.2526 59.1418C65.2802 56.6605 66.9716 54.5104 69.1411 52.9274C71.3106 51.3444 73.8742 50.3898 76.5507 50.1683ZM77.7812 79.3873C74.3245 79.3884 70.98 78.1605 68.3452 75.923L78.2909 65.9773H92.3597C92.0486 69.6314 90.3786 73.036 87.6795 75.5188C84.9804 78.0015 81.4485 79.3819 77.7812 79.3873Z" fill="#0E3594"/>
<path d="M77.7812 47.6447C74.4048 47.6429 71.1034 48.6412 68.2937 50.5135C65.484 52.3858 63.2918 55.0484 61.9936 58.1652C60.6954 61.2821 60.3494 64.7136 60.9993 68.0269C61.6492 71.3402 63.2658 74.3867 65.6452 76.7822C65.6614 76.7998 65.6733 76.8202 65.6902 76.8371C65.7071 76.854 65.7282 76.8666 65.7458 76.8828C67.7402 78.8607 70.1913 80.3169 72.8822 81.1224C75.5732 81.9279 78.4212 82.0581 81.1744 81.5013C83.9276 80.9446 86.5012 79.7181 88.6678 77.9302C90.8343 76.1424 92.527 73.8484 93.5962 71.2509C94.6655 68.6534 95.0782 65.8325 94.7981 63.0376C94.518 60.2426 93.5536 57.5597 91.9902 55.2261C90.4267 52.8925 88.3124 50.98 85.8342 49.6577C83.356 48.3354 80.5901 47.644 77.7812 47.6447ZM92.3597 63.5164H79.0116V50.1683C82.4531 50.4626 85.6799 51.9634 88.1223 54.4058C90.5646 56.8481 92.0655 60.0749 92.3597 63.5164ZM76.5507 50.1683V64.2371L66.605 74.1828C64.8689 72.1338 63.7309 69.6461 63.3159 66.9927C62.9009 64.3394 63.225 61.623 64.2526 59.1418C65.2802 56.6605 66.9716 54.5104 69.1411 52.9274C71.3106 51.3444 73.8742 50.3898 76.5507 50.1683ZM77.7812 79.3873C74.3245 79.3884 70.98 78.1605 68.3452 75.923L78.2909 65.9773H92.3597C92.0486 69.6314 90.3786 73.036 87.6795 75.5188C84.9804 78.0015 81.4485 79.3819 77.7812 79.3873Z" fill="black" fill-opacity="0.2"/>
<path d="M53.2689 73.3355H36.3496C36.0233 73.3355 35.7103 73.4652 35.4795 73.6959C35.2488 73.9267 35.1191 74.2397 35.1191 74.566C35.1191 74.8924 35.2488 75.2053 35.4795 75.4361C35.7103 75.6668 36.0233 75.7965 36.3496 75.7965H53.2689C53.5952 75.7965 53.9082 75.6668 54.139 75.4361C54.3697 75.2053 54.4994 74.8924 54.4994 74.566C54.4994 74.2397 54.3697 73.9267 54.139 73.6959C53.9082 73.4652 53.5952 73.3355 53.2689 73.3355Z" fill="#FF6700"/>
<path d="M53.2689 47.6447H36.3496C36.0233 47.6447 35.7103 47.7744 35.4795 48.0051C35.2488 48.2359 35.1191 48.5489 35.1191 48.8752C35.1191 49.2016 35.2488 49.5145 35.4795 49.7453C35.7103 49.976 36.0233 50.1057 36.3496 50.1057H53.2689C53.5952 50.1057 53.9082 49.976 54.139 49.7453C54.3697 49.5145 54.4994 49.2016 54.4994 48.8752C54.4994 48.5489 54.3697 48.2359 54.139 48.0051C53.9082 47.7744 53.5952 47.6447 53.2689 47.6447Z" fill="#FF6700"/>
<path d="M53.2689 56.2109H36.3496C36.0233 56.2109 35.7103 56.3406 35.4795 56.5713C35.2488 56.8021 35.1191 57.1151 35.1191 57.4414C35.1191 57.7677 35.2488 58.0807 35.4795 58.3115C35.7103 58.5422 36.0233 58.6719 36.3496 58.6719H53.2689C53.5952 58.6719 53.9082 58.5422 54.139 58.3115C54.3697 58.0807 54.4994 57.7677 54.4994 57.4414C54.4994 57.1151 54.3697 56.8021 54.139 56.5713C53.9082 56.3406 53.5952 56.2109 53.2689 56.2109Z" fill="#FF6700"/>
<path d="M53.2689 64.7722H36.3496C36.0233 64.7722 35.7103 64.9018 35.4795 65.1326C35.2488 65.3633 35.1191 65.6763 35.1191 66.0027C35.1191 66.329 35.2488 66.642 35.4795 66.8727C35.7103 67.1035 36.0233 67.2331 36.3496 67.2331H53.2689C53.5952 67.2331 53.9082 67.1035 54.139 66.8727C54.3697 66.642 54.4994 66.329 54.4994 66.0027C54.4994 65.6763 54.3697 65.3633 54.139 65.1326C53.9082 64.9018 53.5952 64.7722 53.2689 64.7722Z" fill="#FF6700"/>
</svg>
