<svg width="130" height="130" viewBox="0 0 130 130" fill="none" xmlns="http://www.w3.org/2000/svg">
<g clip-path="url(#clip0_149_914)">
<path d="M97.3502 20H93.4807C91.7798 20 91.7798 22.6371 93.4807 22.6371H97.3502C101.346 22.6371 104.597 25.8765 104.597 29.8582V60.3733C104.597 64.3551 101.346 67.5946 97.3502 67.5946H92.9615C92.672 67.5946 92.3905 67.6898 92.1604 67.8658L84.1074 74.0257V68.9131C84.1074 68.1849 83.5172 67.5946 82.7888 67.5946H66.7412C65.427 67.5946 64.1641 67.2477 63.0501 66.5882V51.7867C63.0501 49.0142 61.6381 46.5647 59.4937 45.1156V29.8582C59.4937 25.8765 62.7449 22.6371 66.7412 22.6371H85.2178C86.9185 22.6371 86.9185 20 85.2178 20H66.7412C61.2908 20 56.8566 24.4224 56.8566 29.8582V43.9566C56.2529 43.8125 55.6239 43.7339 54.9766 43.7339H30.839C26.3874 43.7339 22.7656 47.3464 22.7656 51.7867V54.6339C22.7656 56.3347 25.4027 56.3347 25.4027 54.6339V51.7867C25.4027 48.8005 27.8413 46.371 30.839 46.371H54.9767C57.9744 46.371 60.4132 48.8005 60.4132 51.7867V67.1132C60.3974 67.2296 60.3981 67.3468 60.4132 67.4623V75.8504C60.4132 76.0162 60.4032 76.1813 60.3883 76.3455H57.6691C54.6728 76.3455 52.1749 78.5081 51.657 81.3504C51.5371 81.3956 51.4219 81.4587 51.3152 81.5409L45.4178 86.0945V82.5847C45.4178 81.8565 44.8276 81.2662 44.0992 81.2662H30.839C27.8413 81.2662 25.4027 78.8367 25.4027 75.8504V62.5452C25.4027 60.8445 22.7656 60.8445 22.7656 62.5452V75.8506C22.7656 80.291 26.3874 83.9034 30.839 83.9034H42.7809V88.7786C42.7809 89.8362 44.0651 90.4707 44.9053 89.8223L51.557 84.6865V99.5202C51.557 102.882 54.299 105.618 57.6692 105.618H65.7607V108.694C65.7607 109.752 67.045 110.387 67.885 109.738L73.2218 105.618H74.7984C78.1686 105.618 80.9107 102.882 80.9107 99.5202V97.1791C80.9107 95.4784 78.2736 95.4784 78.2736 97.1791V99.5202C78.2736 101.428 76.7147 102.981 74.7984 102.981H72.7719C72.4802 102.981 72.1968 103.077 71.9662 103.255L68.3977 106.01V104.299C68.3977 103.571 67.8075 102.98 67.0791 102.98H57.6691C55.7529 102.98 54.1939 101.428 54.1939 99.52V82.4432C54.1939 80.535 55.7528 78.9828 57.6691 78.9828H74.7984C76.7145 78.9828 78.2736 80.5352 78.2736 82.4432V88.9162C78.2736 90.617 80.9107 90.617 80.9107 88.9162V82.4434C80.9107 79.0811 78.1686 76.3459 74.7984 76.3459H63.0352C63.0452 76.1811 63.0503 69.5214 63.0503 69.5214C64.2129 69.9889 65.4594 70.2318 66.7414 70.2318H81.4705V76.6945C81.4705 77.7495 82.7493 78.3847 83.5902 77.7418L93.4083 70.2318H97.3504C102.801 70.2318 107.235 65.8094 107.235 60.3735V29.8582C107.235 24.4224 102.8 20 97.3502 20Z" fill="#0E3594"/>
<path d="M85.34 29.7418C83.6658 29.3144 81.9597 30.6372 81.9597 32.3671C81.9597 34.2572 81.2709 36.0787 80.0211 37.4952L76.3882 41.6061C76.153 41.2452 75.7465 41.0063 75.2836 41.0063H68.1916C67.4632 41.0063 66.873 41.5966 66.873 42.3248V58.2819C66.873 59.0101 67.4632 59.6005 68.1916 59.6005H75.2836C75.8165 59.6005 76.2743 59.2838 76.4823 58.8292C77.9181 59.7065 79.5819 60.1808 81.2748 60.1808H93.8084C95.7236 60.1808 97.3036 58.5189 97.2138 56.6086C97.1739 55.7626 97.2175 44.4032 97.2175 44.1509C97.2175 42.2712 95.6881 40.7417 93.8123 40.7417L87.2946 40.7222L87.5644 40.0831C88.7977 37.1624 88.5947 33.7757 87.0219 31.0231C86.6548 30.38 86.0572 29.9252 85.34 29.7418C86.0572 29.9252 84.6223 29.5586 85.34 29.7418C86.0572 29.9252 83.6659 29.3144 85.34 29.7418ZM73.9651 56.9634H69.5101V43.6434H73.9651V56.9634ZM93.8084 43.3786C94.2342 43.3786 94.5805 43.7249 94.5805 44.1507C94.5805 44.4016 94.5779 45.0825 94.5744 46.0057C94.5549 51.1027 94.5419 55.93 94.5795 56.7323C94.5932 57.0219 94.4524 57.2149 94.3673 57.3042C94.22 57.4586 94.0215 57.5435 93.8084 57.5435H81.2748C79.7808 57.5435 78.3186 57.0258 77.1572 56.0857L76.6022 55.6364V45.3462L81.9979 39.2406C83.6738 37.3412 84.5968 34.9001 84.5968 32.3669C84.5968 32.2924 84.6986 32.2731 84.7324 32.3311C85.9001 34.3745 86.0506 36.8887 85.1351 39.0569L84.0945 41.5215C83.9228 41.9282 83.966 42.3935 84.2092 42.7617C84.4527 43.1298 84.864 43.3517 85.3051 43.3531L93.8084 43.3786Z" fill="#FF6700"/>
<path d="M34.0568 65.7973C33.3285 65.7973 32.7383 66.3876 32.7383 67.1158C32.7383 67.844 33.3285 68.4344 34.0568 68.4344H37.9436L37.2175 72.8259C37.0986 73.5442 37.5849 74.223 38.3033 74.3418C38.3762 74.354 38.4485 74.3598 38.5199 74.3598C39.1535 74.3598 39.7124 73.9018 39.8192 73.2561L40.6164 68.4346H43.7972L43.0711 72.826C42.9523 73.5444 43.4386 74.2232 44.1569 74.342C44.2299 74.3541 44.3021 74.3599 44.3735 74.3599C45.0071 74.3599 45.566 73.902 45.6729 73.2562L46.47 68.4347H51.7606C52.4889 68.4347 53.0791 67.8444 53.0791 67.1162C53.0791 66.388 52.4889 65.7976 51.7606 65.7976H46.906L47.4378 62.5811H51.7606C52.4889 62.5811 53.0791 61.9907 53.0791 61.2625C53.0791 60.5343 52.4889 59.944 51.7606 59.944H47.8738L48.5999 55.5525C48.7188 54.8342 48.2325 54.1554 47.5141 54.0365C46.7949 53.9173 46.117 54.404 45.9981 55.1223L45.201 59.9438H42.0202L42.7463 55.5523C42.8651 54.834 42.3788 54.1552 41.6605 54.0363C40.9404 53.9171 40.2635 54.4038 40.1445 55.1221L39.3474 59.9436H34.0568C33.3285 59.9436 32.7383 60.534 32.7383 61.2622C32.7383 61.9904 33.3285 62.5807 34.0568 62.5807H38.9114L38.3796 65.7973H34.0568ZM41.5843 62.5807H44.7652L44.2334 65.7973H41.0525L41.5843 62.5807Z" fill="#FF6700"/>
<path d="M66.2184 85.7861C65.1537 84.9096 63.7373 84.5638 62.3164 84.9092C60.4956 85.3514 58.6582 87.0535 58.6582 89.8592C58.6582 91.6055 59.2955 93.1213 60.6065 94.4933C61.6773 95.6141 63.2227 96.6798 65.6168 97.9492C65.81 98.0517 66.0222 98.1028 66.2344 98.1028C66.4466 98.1028 66.6588 98.0517 66.852 97.9492C71.0288 95.7349 73.8105 93.5118 73.8105 89.8592C73.8105 87.0382 71.9079 85.3535 70.0222 84.9352C68.6055 84.6209 67.2321 84.9546 66.2184 85.7861ZM71.1732 89.8592C71.1732 91.8293 69.8664 93.2862 66.2342 95.2857C62.6021 93.2861 61.2951 91.8292 61.2951 89.8592C61.2951 88.3934 62.1439 87.6648 62.9384 87.4718C63.0848 87.4363 63.2417 87.4162 63.4029 87.4162C64.0004 87.4162 64.6574 87.6922 65.0625 88.4776C65.2933 88.9245 65.7599 89.2015 66.2604 89.1912C66.7631 89.1811 67.2165 88.8861 67.429 88.4305C67.8557 87.5159 68.753 87.355 69.4506 87.5099C70.2836 87.6944 71.1732 88.4087 71.1732 89.8592Z" fill="#FF6700"/>
</g>
<defs>
<clipPath id="clip0_149_914">
<rect width="90" height="90" fill="white" transform="translate(20 20)"/>
</clipPath>
</defs>
</svg>
