<svg width="130" height="130" viewBox="0 0 130 130" fill="none" xmlns="http://www.w3.org/2000/svg">
<path d="M42.5 28.4375H45.3125V31.25H42.5V28.4375Z" fill="#0E3594"/>
<path d="M36.875 28.4375H39.6875V31.25H36.875V28.4375Z" fill="#0E3594"/>
<path d="M31.25 28.4375H34.0625V31.25H31.25V28.4375Z" fill="#0E3594"/>
<path d="M97.3438 22.8125H32.6562C27.1719 22.8125 22.8125 27.1719 22.8125 32.6562V80.4688C22.8125 85.9531 27.1719 90.3125 32.6562 90.3125V87.5C28.7188 87.5 25.625 84.4062 25.625 80.4688V36.875H101.562V34.0625H25.625V32.6562C25.625 28.7188 28.7188 25.625 32.6562 25.625H97.3438C101.281 25.625 104.375 28.7188 104.375 32.6562V80.4688C104.375 84.4062 101.281 87.5 97.3438 87.5V90.3125C102.828 90.3125 107.188 85.9531 107.188 80.4688V32.6562C107.188 27.1719 102.828 22.8125 97.3438 22.8125Z" fill="#0E3594"/>
<path d="M48.125 28.4375H67.8125V31.25H48.125V28.4375Z" fill="#0E3594"/>
<path d="M92.9844 62.4688L91.7188 103.672C90.0312 104.656 87.7812 104.656 86.0938 103.672L84.8281 62.6094L81.875 60.7812L83.2812 105.219L84.2656 105.922C87.0781 107.75 90.7344 107.75 93.5469 105.922L94.5312 105.219L95.9375 60.7812L92.9844 62.4688Z" fill="#FF6700"/>
<path d="M69.2188 39.6875H60.7812C57.6875 39.6875 55.1562 42.2188 55.1562 45.3125V101.562C55.1562 104.656 57.6875 107.188 60.7812 107.188H69.2188C72.3125 107.188 74.8438 104.656 74.8438 101.562V45.3125C74.8438 42.2188 72.3125 39.6875 69.2188 39.6875ZM69.2188 104.375H60.7812C59.2344 104.375 57.9688 103.109 57.9688 101.562V45.3125C57.9688 43.7656 59.2344 42.5 60.7812 42.5H69.2188C70.7656 42.5 72.0312 43.7656 72.0312 45.3125V46.7188H66.4062V49.5312H72.0312V52.3438H69.2188V55.1562H72.0312V57.9688H69.2188V60.7812H72.0312V63.5938H66.4062V66.4062H72.0312V69.2188H69.2188V72.0312H72.0312V74.8438H69.2188V77.6562H72.0312V80.4688H66.4062V83.2812H72.0312V86.0938H69.2188V88.9062H72.0312V91.7188H69.2188V94.5312H72.0312V97.3438H66.4062V100.156H72.0312V101.562C72.0312 103.109 70.7656 104.375 69.2188 104.375Z" fill="#FF6700"/>
<path d="M49.3906 56L43.7656 43.3437C43.4844 42.6406 42.6406 42.3594 41.9375 42.6406C41.6563 42.7812 41.375 43.0625 41.2344 43.3437L35.6094 56C35.5043 56.1993 35.4688 56.4219 35.4688 56.5625V102.969C35.4688 105.359 37.2969 107.187 39.6875 107.187H45.3125C47.7031 107.187 49.5312 105.359 49.5312 102.969V56.5625C49.5312 56.4219 49.469 56.1883 49.3906 56ZM41.0938 60.7812V95.9375H38.2812V57.9687H46.7188V95.9375H43.9062V60.7812H41.0938ZM42.5 47.4219L46.0156 55.1562H39.125L42.5 47.4219ZM45.3125 104.375H39.6875C38.8438 104.375 38.2812 103.812 38.2812 102.969V98.75H46.7188V102.969C46.7188 103.812 46.1562 104.375 45.3125 104.375Z" fill="#FF6700"/>
<path d="M97.3438 56C97.2031 52.2031 96.2188 49.6719 95.5156 47.7031C94.5313 45.3125 94.3906 44.6094 95.5156 43.4844C95.9375 43.0625 96.0781 42.5 95.7969 41.9375C95.6563 41.375 95.0938 41.0938 94.5312 41.0938C85.25 41.0938 80.4688 48.8281 80.4688 56.5625C80.4688 61.2031 84.2656 65 88.9062 65C93.5469 65 97.3438 61.2031 97.3438 56.5625C97.3438 56.4219 97.3438 56.1406 97.3438 56ZM88.9062 62.1875C85.8125 62.1875 83.2812 59.6562 83.2812 56.5625C83.2812 54.1719 83.9844 51.2188 85.3906 48.8281C86.7969 46.5781 88.9063 44.75 92 44.1875C91.7188 45.7344 92.9844 49.25 92.9844 49.25C93.6875 51.0781 94.3906 53.3281 94.3906 56.5625C94.5313 59.6562 92 62.1875 88.9062 62.1875Z" fill="#FF6700"/>
</svg>
